<mxfile host="app.diagrams.net" modified="2021-11-16T05:49:53.577Z" agent="5.0 (Windows NT 10.0; Win64; x64) AppleWebKit/537.36 (KHTML, like Gecko) Chrome/95.0.4638.69 Safari/537.36" etag="rEoMqDeskzJ7yzujJGUe" version="15.7.3" type="github" pages="2">
  <diagram id="DFG3QYH3-1c4JRRB8rqu" name="Overview">
    <mxGraphModel dx="1673" dy="1996" grid="1" gridSize="10" guides="1" tooltips="1" connect="1" arrows="1" fold="1" page="1" pageScale="1" pageWidth="850" pageHeight="1100" math="0" shadow="0">
      <root>
        <mxCell id="0" />
        <mxCell id="1" parent="0" />
        <mxCell id="HRe7P6NsOLEz5icDgToi-44" value="" style="rounded=0;whiteSpace=wrap;html=1;shadow=0;labelBackgroundColor=none;strokeColor=#09090F;strokeWidth=1;fillColor=none;gradientColor=none;opacity=80;" vertex="1" parent="1">
          <mxGeometry x="200" y="120" width="480" height="500" as="geometry" />
        </mxCell>
        <mxCell id="XHo8_FT0erIl1Q9f6Zcl-1" value="" style="rounded=0;whiteSpace=wrap;html=1;shadow=0;dashed=1;labelBackgroundColor=none;fontSize=14;strokeColor=#09090F;strokeWidth=2;fillColor=none;gradientColor=none;opacity=60;" vertex="1" parent="1">
          <mxGeometry x="129" y="-40" width="571" height="810" as="geometry" />
        </mxCell>
        <mxCell id="HRe7P6NsOLEz5icDgToi-23" value="Couchbase Subnet" style="points=[[0,0],[0.25,0],[0.5,0],[0.75,0],[1,0],[1,0.25],[1,0.5],[1,0.75],[1,1],[0.75,1],[0.5,1],[0.25,1],[0,1],[0,0.75],[0,0.5],[0,0.25]];outlineConnect=0;html=1;whiteSpace=wrap;fontSize=12;fontStyle=0;shape=mxgraph.aws4.group;grIcon=mxgraph.aws4.group_security_group;grStroke=0;strokeColor=#d79b00;fillColor=#ffe6cc;verticalAlign=top;align=left;spacingLeft=30;strokeWidth=7;perimeterSpacing=2;shadow=0;opacity=80;" vertex="1" parent="1">
          <mxGeometry x="444" y="150" width="210" height="190" as="geometry" />
        </mxCell>
        <mxCell id="HRe7P6NsOLEz5icDgToi-35" value="" style="rounded=0;whiteSpace=wrap;html=1;shadow=0;labelBackgroundColor=none;strokeColor=default;strokeWidth=1;fillColor=none;gradientColor=none;opacity=80;dashed=1;" vertex="1" parent="1">
          <mxGeometry x="478.57" y="200" width="145.43" height="120" as="geometry" />
        </mxCell>
        <mxCell id="HRe7P6NsOLEz5icDgToi-3" value="SF Subnet" style="points=[[0,0],[0.25,0],[0.5,0],[0.75,0],[1,0],[1,0.25],[1,0.5],[1,0.75],[1,1],[0.75,1],[0.5,1],[0.25,1],[0,1],[0,0.75],[0,0.5],[0,0.25]];outlineConnect=0;html=1;whiteSpace=wrap;fontSize=12;fontStyle=0;shape=mxgraph.aws4.group;grIcon=mxgraph.aws4.group_security_group;grStroke=0;strokeColor=#6c8ebf;fillColor=#dae8fc;verticalAlign=top;align=left;spacingLeft=30;strokeWidth=3;" vertex="1" parent="1">
          <mxGeometry x="234" y="287" width="160" height="223" as="geometry" />
        </mxCell>
        <mxCell id="HRe7P6NsOLEz5icDgToi-2" value="" style="verticalLabelPosition=bottom;html=1;verticalAlign=top;align=center;strokeColor=none;fillColor=#00BEF2;shape=mxgraph.azure.virtual_network;pointerEvents=1;" vertex="1" parent="1">
          <mxGeometry x="180" y="105.25" width="50" height="27.500000000000004" as="geometry" />
        </mxCell>
        <mxCell id="HRe7P6NsOLEz5icDgToi-1" value="" style="shape=image;verticalLabelPosition=bottom;verticalAlign=top;imageAspect=0;aspect=fixed;image=data:image/svg+xml,PHN2ZyB4bWxuczpkYz0iaHR0cDovL3B1cmwub3JnL2RjL2VsZW1lbnRzLzEuMS8iIHhtbG5zOmNjPSJodHRwOi8vY3JlYXRpdmVjb21tb25zLm9yZy9ucyMiIHhtbG5zOnJkZj0iaHR0cDovL3d3dy53My5vcmcvMTk5OS8wMi8yMi1yZGYtc3ludGF4LW5zIyIgeG1sbnM6c3ZnPSJodHRwOi8vd3d3LnczLm9yZy8yMDAwL3N2ZyIgeG1sbnM9Imh0dHA6Ly93d3cudzMub3JnLzIwMDAvc3ZnIiB4bWxuczpzb2RpcG9kaT0iaHR0cDovL3NvZGlwb2RpLnNvdXJjZWZvcmdlLm5ldC9EVEQvc29kaXBvZGktMC5kdGQiIHhtbG5zOmlua3NjYXBlPSJodHRwOi8vd3d3Lmlua3NjYXBlLm9yZy9uYW1lc3BhY2VzL2lua3NjYXBlIiB2ZXJzaW9uPSIxLjEiIGlkPSJMYXllcl8xIiB4PSIwcHgiIHk9IjBweCIgd2lkdGg9IjUwcHgiIGhlaWdodD0iNTBweCIgdmlld0JveD0iMCAwIDUwIDUwIiBlbmFibGUtYmFja2dyb3VuZD0ibmV3IDAgMCA1MCA1MCIgeG1sOnNwYWNlPSJwcmVzZXJ2ZSIgc29kaXBvZGk6ZG9jbmFtZT0iU2VydmljZSBGYWJyaWMgQ2x1c3RlcnMuc3ZnIiBpbmtzY2FwZTp2ZXJzaW9uPSIwLjkyLjMgKDI0MDU1NDYsIDIwMTgtMDMtMTEpIj48bWV0YWRhdGEgaWQ9Im1ldGFkYXRhMTE2MiI+PHJkZjpSREY+PGNjOldvcmsgcmRmOmFib3V0PSIiPjxkYzpmb3JtYXQ+aW1hZ2Uvc3ZnK3htbDwvZGM6Zm9ybWF0PjxkYzp0eXBlIHJkZjpyZXNvdXJjZT0iaHR0cDovL3B1cmwub3JnL2RjL2RjbWl0eXBlL1N0aWxsSW1hZ2UiLz48ZGM6dGl0bGUvPjwvY2M6V29yaz48L3JkZjpSREY+PC9tZXRhZGF0YT48ZGVmcyBpZD0iZGVmczExNjAiLz48c29kaXBvZGk6bmFtZWR2aWV3IHBhZ2Vjb2xvcj0iI2ZmZmZmZiIgYm9yZGVyY29sb3I9IiM2NjY2NjYiIGJvcmRlcm9wYWNpdHk9IjEiIG9iamVjdHRvbGVyYW5jZT0iMTAiIGdyaWR0b2xlcmFuY2U9IjEwIiBndWlkZXRvbGVyYW5jZT0iMTAiIGlua3NjYXBlOnBhZ2VvcGFjaXR5PSIwIiBpbmtzY2FwZTpwYWdlc2hhZG93PSIyIiBpbmtzY2FwZTp3aW5kb3ctd2lkdGg9IjQ0MiIgaW5rc2NhcGU6d2luZG93LWhlaWdodD0iNDAzIiBpZD0ibmFtZWR2aWV3MTE1OCIgc2hvd2dyaWQ9ImZhbHNlIiBpbmtzY2FwZTp6b29tPSI0LjcyIiBpbmtzY2FwZTpjeD0iMjUiIGlua3NjYXBlOmN5PSIyNSIgaW5rc2NhcGU6d2luZG93LXg9IjAiIGlua3NjYXBlOndpbmRvdy15PSIwIiBpbmtzY2FwZTp3aW5kb3ctbWF4aW1pemVkPSIwIiBpbmtzY2FwZTpjdXJyZW50LWxheWVyPSJMYXllcl8xIi8+JiN4YTs8cGF0aCBmaWxsPSIjREQ1OTAwIiBkPSJNMjQuOTk2LDkuNDhsMTUuNzgsMTMuMTAxbC01LjMyMSwxOC4wMzJIMTQuMTk3TDkuMTgsMjIuNjFMMjQuOTk2LDkuNDggTTI0Ljk5NiwzLjg5NEw0LjI5MywyMS4wODIgIGw2LjY0MSwyMy44MjhoMjcuNzM0bDcuMDMxLTIzLjgyOEwyNC45OTYsMy44OTRMMjQuOTk2LDMuODk0eiIgaWQ9InBhdGgxMTQzIi8+JiN4YTs8cGF0aCBmaWxsLXJ1bGU9ImV2ZW5vZGQiIGNsaXAtcnVsZT0iZXZlbm9kZCIgZmlsbD0iI0ZGOEMwMCIgZD0iTTI1LDBjNC4zMTUsMCw3LjgxMywzLjQ5OCw3LjgxMyw3LjgxMyAgYzAsNC4zMTUtMy40OTgsNy44MTItNy44MTMsNy44MTJjLTQuMzE1LDAtNy44MTItMy40OTgtNy44MTItNy44MTJDMTcuMTg3LDMuNDk4LDIwLjY4NSwwLDI1LDB6IiBpZD0icGF0aDExNDUiLz4mI3hhOzxwYXRoIGZpbGwtcnVsZT0iZXZlbm9kZCIgY2xpcC1ydWxlPSJldmVub2RkIiBmaWxsPSIjRkY4QzAwIiBkPSJNNDIuMTg4LDEzLjI4MWM0LjMxNSwwLDcuODEyLDMuNDk4LDcuODEyLDcuODEyICBjMCw0LjMxNS0zLjQ5OCw3LjgxMi03LjgxMiw3LjgxMmMtNC4zMTUsMC03LjgxMy0zLjQ5OC03LjgxMy03LjgxMkMzNC4zNzUsMTYuNzc5LDM3Ljg3MywxMy4yODEsNDIuMTg4LDEzLjI4MXoiIGlkPSJwYXRoMTE0NyIvPiYjeGE7PHBhdGggZmlsbC1ydWxlPSJldmVub2RkIiBjbGlwLXJ1bGU9ImV2ZW5vZGQiIGZpbGw9IiNGRjhDMDAiIGQ9Ik0zNi4zMjgsMzQuMzc1YzQuMzE1LDAsNy44MTMsMy40OTgsNy44MTMsNy44MTIgIGMwLDQuMzE1LTMuNDk4LDcuODEyLTcuODEzLDcuODEyYy00LjMxNSwwLTcuODEyLTMuNDk4LTcuODEyLTcuODEyQzI4LjUxNiwzNy44NzMsMzIuMDEzLDM0LjM3NSwzNi4zMjgsMzQuMzc1eiIgaWQ9InBhdGgxMTQ5Ii8+JiN4YTs8cGF0aCBmaWxsLXJ1bGU9ImV2ZW5vZGQiIGNsaXAtcnVsZT0iZXZlbm9kZCIgZmlsbD0iI0ZGOEMwMCIgZD0iTTEzLjY2MiwzNC4zNzVjNC4zMTUsMCw3LjgxMywzLjQ5OCw3LjgxMyw3LjgxMiAgYzAsNC4zMTUtMy40OTgsNy44MTMtNy44MTMsNy44MTNzLTcuODEzLTMuNDk4LTcuODEzLTcuODEzQzUuODQ5LDM3Ljg3Myw5LjM0NywzNC4zNzUsMTMuNjYyLDM0LjM3NXoiIGlkPSJwYXRoMTE1MSIvPiYjeGE7PHBhdGggZmlsbC1ydWxlPSJldmVub2RkIiBjbGlwLXJ1bGU9ImV2ZW5vZGQiIGZpbGw9IiNGRjhDMDAiIGQ9Ik03LjgxMywxMy4yODFjNC4zMTUsMCw3LjgxMiwzLjQ5OCw3LjgxMiw3LjgxMiAgYzAsNC4zMTUtMy40OTgsNy44MTItNy44MTIsNy44MTJDMy40OTgsMjguOTA2LDAsMjUuNDA5LDAsMjEuMDk0QzAsMTYuNzc5LDMuNDk4LDEzLjI4MSw3LjgxMywxMy4yODF6IiBpZD0icGF0aDExNTMiLz4mI3hhOzxwYXRoIG9wYWNpdHk9IjAuMjUiIGZpbGwtcnVsZT0iZXZlbm9kZCIgY2xpcC1ydWxlPSJldmVub2RkIiBmaWxsPSIjRkZGRkZGIiBkPSJNMTUuMDU1LDQ5Ljg3NWwzLjE4My0xNC4wMTggIGMtMS4yODYtMC45MzEtMi44NjYtMS40ODEtNC41NzYtMS40ODFjLTAuNDAxLDAtMC43OTQsMC4wMy0xLjE3OSwwLjA4OWwtMS43MTEtNi4xMzljMi44NDctMS4xNjcsNC44NTMtMy45NjQsNC44NTMtNy4yMzEgIGMwLTEuMTU5LTAuMjU0LTIuMjU4LTAuNzA3LTMuMjQ4bDQuOTcyLTQuMTI3YzAuODU5LDAuNzQ0LDEuODgyLDEuMzA0LDMuMDA3LDEuNjE5bDMuNDU1LTE1LjIxOUMyNS45MTIsMC4wNDIsMjUuNDYxLDAsMjUsMCAgYy00LjMxNSwwLTcuODEyLDMuNDk4LTcuODEyLDcuODEzYzAsMC43OTQsMC4xMTksMS41NiwwLjM0LDIuMjgybC01LjQwMiw0LjQ4NWMtMS4yMzYtMC44Mi0yLjcxOC0xLjI5OC00LjMxMi0xLjI5OCAgQzMuNDk4LDEzLjI4MSwwLDE2Ljc3OSwwLDIxLjA5NGMwLDMuODQ2LDIuNzgsNy4wNCw2LjQzOSw3LjY5bDIuMDk0LDcuNTE0Yy0xLjY0NCwxLjQzMi0yLjY4NCwzLjUzOS0yLjY4NCw1Ljg5ICBjMCw0LjMxNSwzLjQ5OCw3LjgxMyw3LjgxMyw3LjgxM0MxNC4xMzcsNTAsMTQuNjAzLDQ5Ljk1NiwxNS4wNTUsNDkuODc1eiIgaWQ9InBhdGgxMTU1Ii8+JiN4YTs8L3N2Zz4=" vertex="1" parent="1">
          <mxGeometry x="244" y="330" width="29.25" height="29.25" as="geometry" />
        </mxCell>
        <mxCell id="HRe7P6NsOLEz5icDgToi-10" value="" style="shape=image;verticalLabelPosition=bottom;verticalAlign=top;imageAspect=0;aspect=fixed;image=data:image/svg+xml,PHN2ZyB4bWxuczpkYz0iaHR0cDovL3B1cmwub3JnL2RjL2VsZW1lbnRzLzEuMS8iIHhtbG5zOmNjPSJodHRwOi8vY3JlYXRpdmVjb21tb25zLm9yZy9ucyMiIHhtbG5zOnJkZj0iaHR0cDovL3d3dy53My5vcmcvMTk5OS8wMi8yMi1yZGYtc3ludGF4LW5zIyIgeG1sbnM6c3ZnPSJodHRwOi8vd3d3LnczLm9yZy8yMDAwL3N2ZyIgeG1sbnM9Imh0dHA6Ly93d3cudzMub3JnLzIwMDAvc3ZnIiB4bWxuczpzb2RpcG9kaT0iaHR0cDovL3NvZGlwb2RpLnNvdXJjZWZvcmdlLm5ldC9EVEQvc29kaXBvZGktMC5kdGQiIHhtbG5zOmlua3NjYXBlPSJodHRwOi8vd3d3Lmlua3NjYXBlLm9yZy9uYW1lc3BhY2VzL2lua3NjYXBlIiB2ZXJzaW9uPSIxLjEiIGlkPSJMYXllcl8xIiB4PSIwcHgiIHk9IjBweCIgd2lkdGg9IjUwcHgiIGhlaWdodD0iNTBweCIgdmlld0JveD0iMCAwIDUwIDUwIiBlbmFibGUtYmFja2dyb3VuZD0ibmV3IDAgMCA1MCA1MCIgeG1sOnNwYWNlPSJwcmVzZXJ2ZSIgc29kaXBvZGk6ZG9jbmFtZT0iUmVzb3VyY2UgR3JvdXBzLnN2ZyIgaW5rc2NhcGU6dmVyc2lvbj0iMC45Mi4zICgyNDA1NTQ2LCAyMDE4LTAzLTExKSI+PG1ldGFkYXRhIGlkPSJtZXRhZGF0YTMzODAiPjxyZGY6UkRGPjxjYzpXb3JrIHJkZjphYm91dD0iIj48ZGM6Zm9ybWF0PmltYWdlL3N2Zyt4bWw8L2RjOmZvcm1hdD48ZGM6dHlwZSByZGY6cmVzb3VyY2U9Imh0dHA6Ly9wdXJsLm9yZy9kYy9kY21pdHlwZS9TdGlsbEltYWdlIi8+PGRjOnRpdGxlLz48L2NjOldvcms+PC9yZGY6UkRGPjwvbWV0YWRhdGE+PGRlZnMgaWQ9ImRlZnMzMzc4Ii8+PHNvZGlwb2RpOm5hbWVkdmlldyBwYWdlY29sb3I9IiNmZmZmZmYiIGJvcmRlcmNvbG9yPSIjNjY2NjY2IiBib3JkZXJvcGFjaXR5PSIxIiBvYmplY3R0b2xlcmFuY2U9IjEwIiBncmlkdG9sZXJhbmNlPSIxMCIgZ3VpZGV0b2xlcmFuY2U9IjEwIiBpbmtzY2FwZTpwYWdlb3BhY2l0eT0iMCIgaW5rc2NhcGU6cGFnZXNoYWRvdz0iMiIgaW5rc2NhcGU6d2luZG93LXdpZHRoPSIxNjAwIiBpbmtzY2FwZTp3aW5kb3ctaGVpZ2h0PSI4MzciIGlkPSJuYW1lZHZpZXczMzc2IiBzaG93Z3JpZD0iZmFsc2UiIGlua3NjYXBlOnpvb209IjYuMjYiIGlua3NjYXBlOmN4PSIyNSIgaW5rc2NhcGU6Y3k9IjI1IiBpbmtzY2FwZTp3aW5kb3cteD0iLTgiIGlua3NjYXBlOndpbmRvdy15PSItOCIgaW5rc2NhcGU6d2luZG93LW1heGltaXplZD0iMSIgaW5rc2NhcGU6Y3VycmVudC1sYXllcj0iTGF5ZXJfMSIvPiYjeGE7PHBhdGggZmlsbD0iIzM5OTlDNiIgZD0iTTI1LjA0NywyMi42NDdjLTAuMDc4LDAtMC4xNS0wLjAyMy0wLjIyLTAuMDY0bC0xNC43MTEtOC40OWMtMC4xNC0wLjA4LTAuMjIzLTAuMjI4LTAuMjIzLTAuMzg5ICBjMC0wLjE1NiwwLjA4My0wLjMwNCwwLjIyMy0wLjM4MmwxNC42MTYtOC40MzVjMC4xMzktMC4wNzcsMC4zMDktMC4wNzcsMC40NDIsMGwxNC43MTQsOC40OTVjMC4xMzMsMC4wNzgsMC4yMjEsMC4yMjQsMC4yMjEsMC4zODIgIGMwLDAuMTYzLTAuMDg4LDAuMzA4LTAuMjIxLDAuMzg3bC0xNC42MTksOC40MzNDMjUuMiwyMi42MjQsMjUuMTI2LDIyLjY0NywyNS4wNDcsMjIuNjQ3IiBpZD0icGF0aDMzNjMiLz4mI3hhOzxwYXRoIGZpbGw9IiM1OUI0RDkiIGQ9Ik0yMi45MzIsNDMuMjg0Yy0wLjA4LDAtMC4xNTgtMC4wMTktMC4yMjYtMC4wNTlMOC4wNDIsMzQuNzYxYy0wLjE0Mi0wLjA3OS0wLjIyNi0wLjIyNC0wLjIyNi0wLjM4NlYxNy4zOSAgYzAtMC4xNTksMC4wODQtMC4zMDUsMC4yMjYtMC4zODljMC4xMzQtMC4wNzcsMC4zMDYtMC4wNzcsMC40NDgsMGwxNC42NjIsOC40NjRjMC4xMzYsMC4wODIsMC4yMTgsMC4yMjgsMC4yMTgsMC4zODd2MTYuOTg3ICBjMCwwLjE2My0wLjA4MywwLjMwNS0wLjIxOCwwLjM4NkMyMy4wNzksNDMuMjY2LDIzLjAwNiw0My4yODQsMjIuOTMyLDQzLjI4NCIgaWQ9InBhdGgzMzY1Ii8+JiN4YTs8cGF0aCBmaWxsPSIjNTlCNEQ5IiBkPSJNMjcuMDgxLDQzLjI4NGMtMC4wNzUsMC0wLjE1Mi0wLjAxOS0wLjIyNi0wLjA1OWMtMC4xMzYtMC4wODEtMC4yMi0wLjIyMy0wLjIyLTAuMzg2VjI1Ljk2MiAgYzAtMC4xNTksMC4wODQtMC4zMDUsMC4yMi0wLjM4N2wxNC42Ni04LjQ2MWMwLjE0Mi0wLjA3OCwwLjMwOC0wLjA3OCwwLjQ0OCwwYzAuMTM0LDAuMDgsMC4yMiwwLjIyNywwLjIyLDAuMzg1djE2Ljg3NyAgYzAsMC4xNjItMC4wODUsMC4zMDYtMC4yMiwwLjM4NmwtMTQuNjY1LDguNDY0QzI3LjIzNyw0My4yNjYsMjcuMTU4LDQzLjI4NCwyNy4wODEsNDMuMjg0IiBpZD0icGF0aDMzNjciLz4mI3hhOzxwYXRoIG9wYWNpdHk9IjAuNSIgZmlsbD0iI0ZGRkZGRiIgZD0iTTI3LjA4MSw0My4yODRjLTAuMDc1LDAtMC4xNTItMC4wMTktMC4yMjYtMC4wNTljLTAuMTM2LTAuMDgxLTAuMjItMC4yMjMtMC4yMi0wLjM4NlYyNS45NjIgIGMwLTAuMTU5LDAuMDg0LTAuMzA1LDAuMjItMC4zODdsMTQuNjYtOC40NjFjMC4xNDItMC4wNzgsMC4zMDgtMC4wNzgsMC40NDgsMGMwLjEzNCwwLjA4LDAuMjIsMC4yMjcsMC4yMiwwLjM4NXYxNi44NzcgIGMwLDAuMTYyLTAuMDg1LDAuMzA2LTAuMjIsMC4zODZsLTE0LjY2NSw4LjQ2NEMyNy4yMzcsNDMuMjY2LDI3LjE1OCw0My4yODQsMjcuMDgxLDQzLjI4NCIgaWQ9InBhdGgzMzY5Ii8+JiN4YTs8cGF0aCBmaWxsPSIjN0E3QTdBIiBkPSJNOS41NTgsNDUuMTcxYy0wLjI0NywwLTAuNDk3LTAuMDYzLTAuNzI2LTAuMTk1bC02Ljg0NS0zLjk1MkMwLjgzNSw0MC4zNTgsMCwzOC45MTEsMCwzNy41ODJWMTIuNDE4ICBjMC0xLjMyOSwwLjgzNS0yLjc3NywxLjk4Ny0zLjQ0MWw2Ljg0NS0zLjk1MmMwLjY5Ny0wLjQwMSwxLjU4Ni0wLjE2MywxLjk4NywwLjUzMmMwLjQwMiwwLjY5NiwwLjE2MywxLjU4NS0wLjUzMiwxLjk4NyAgbC02Ljg0NSwzLjk1MmMtMC4yNDMsMC4xNDEtMC41MzIsMC42NDEtMC41MzIsMC45MjJ2MjUuMTY0YzAsMC4yODEsMC4yODksMC43ODIsMC41MzIsMC45MjJsNi44NDUsMy45NTIgIGMwLjY5NiwwLjQwMiwwLjkzNCwxLjI5MSwwLjUzMiwxLjk4N0MxMC41NSw0NC45MSwxMC4wNjEsNDUuMTcxLDkuNTU4LDQ1LjE3MXoiIGlkPSJwYXRoMzM3MSIvPiYjeGE7PHBhdGggZmlsbD0iIzdBN0E3QSIgZD0iTTQwLjQ0Miw0LjgyOWMwLjI0NywwLDAuNDk3LDAuMDYzLDAuNzI2LDAuMTk1bDYuODQ1LDMuOTUyQzQ5LjE2NSw5LjY0Miw1MCwxMS4wODksNTAsMTIuNDE4djI1LjE2NCAgYzAsMS4zMjktMC44MzUsMi43NzctMS45ODcsMy40NDFsLTYuODQ1LDMuOTUyYy0wLjY5NywwLjQwMS0xLjU4NiwwLjE2My0xLjk4Ny0wLjUzMmMtMC40MDItMC42OTYtMC4xNjMtMS41ODUsMC41MzItMS45ODcgIGw2Ljg0NS0zLjk1MmMwLjI0My0wLjE0MSwwLjUzMi0wLjY0MSwwLjUzMi0wLjkyMlYxMi40MThjMC0wLjI4MS0wLjI4OS0wLjc4Mi0wLjUzMi0wLjkyMmwtNi44NDUtMy45NTIgIGMtMC42OTYtMC40MDItMC45MzQtMS4yOTEtMC41MzItMS45ODdDMzkuNDUsNS4wOSwzOS45MzksNC44MjksNDAuNDQyLDQuODI5eiIgaWQ9InBhdGgzMzczIi8+JiN4YTs8L3N2Zz4=;fillColor=none;" vertex="1" parent="1">
          <mxGeometry x="110" y="-70" width="50" height="50" as="geometry" />
        </mxCell>
        <mxCell id="HRe7P6NsOLEz5icDgToi-39" style="edgeStyle=orthogonalEdgeStyle;rounded=0;orthogonalLoop=1;jettySize=auto;html=1;entryX=0;entryY=0.5;entryDx=0;entryDy=0;" edge="1" parent="1" source="HRe7P6NsOLEz5icDgToi-11" target="HRe7P6NsOLEz5icDgToi-33">
          <mxGeometry relative="1" as="geometry" />
        </mxCell>
        <mxCell id="HRe7P6NsOLEz5icDgToi-11" value="Event hubs" style="shape=image;verticalLabelPosition=bottom;verticalAlign=top;imageAspect=0;aspect=fixed;image=data:image/svg+xml,PHN2ZyB4bWxuczpkYz0iaHR0cDovL3B1cmwub3JnL2RjL2VsZW1lbnRzLzEuMS8iIHhtbG5zOmNjPSJodHRwOi8vY3JlYXRpdmVjb21tb25zLm9yZy9ucyMiIHhtbG5zOnJkZj0iaHR0cDovL3d3dy53My5vcmcvMTk5OS8wMi8yMi1yZGYtc3ludGF4LW5zIyIgeG1sbnM6c3ZnPSJodHRwOi8vd3d3LnczLm9yZy8yMDAwL3N2ZyIgeG1sbnM9Imh0dHA6Ly93d3cudzMub3JnLzIwMDAvc3ZnIiB4bWxuczpzb2RpcG9kaT0iaHR0cDovL3NvZGlwb2RpLnNvdXJjZWZvcmdlLm5ldC9EVEQvc29kaXBvZGktMC5kdGQiIHhtbG5zOmlua3NjYXBlPSJodHRwOi8vd3d3Lmlua3NjYXBlLm9yZy9uYW1lc3BhY2VzL2lua3NjYXBlIiB2ZXJzaW9uPSIxLjEiIGlkPSJMYXllcl8xIiB4PSIwcHgiIHk9IjBweCIgd2lkdGg9IjUwcHgiIGhlaWdodD0iNTBweCIgdmlld0JveD0iMCAwIDUwIDUwIiBlbmFibGUtYmFja2dyb3VuZD0ibmV3IDAgMCA1MCA1MCIgeG1sOnNwYWNlPSJwcmVzZXJ2ZSIgc29kaXBvZGk6ZG9jbmFtZT0iZGVkaWNhdGVkX2V2ZW50X2h1Yi5zdmciIGlua3NjYXBlOnZlcnNpb249IjAuOTIuMyAoMjQwNTU0NiwgMjAxOC0wMy0xMSkiPjxtZXRhZGF0YSBpZD0ibWV0YWRhdGExNjE4Ij48cmRmOlJERj48Y2M6V29yayByZGY6YWJvdXQ9IiI+PGRjOmZvcm1hdD5pbWFnZS9zdmcreG1sPC9kYzpmb3JtYXQ+PGRjOnR5cGUgcmRmOnJlc291cmNlPSJodHRwOi8vcHVybC5vcmcvZGMvZGNtaXR5cGUvU3RpbGxJbWFnZSIvPjxkYzp0aXRsZS8+PC9jYzpXb3JrPjwvcmRmOlJERj48L21ldGFkYXRhPjxkZWZzIGlkPSJkZWZzMTYxNiIvPjxzb2RpcG9kaTpuYW1lZHZpZXcgcGFnZWNvbG9yPSIjZmZmZmZmIiBib3JkZXJjb2xvcj0iIzY2NjY2NiIgYm9yZGVyb3BhY2l0eT0iMSIgb2JqZWN0dG9sZXJhbmNlPSIxMCIgZ3JpZHRvbGVyYW5jZT0iMTAiIGd1aWRldG9sZXJhbmNlPSIxMCIgaW5rc2NhcGU6cGFnZW9wYWNpdHk9IjAiIGlua3NjYXBlOnBhZ2VzaGFkb3c9IjIiIGlua3NjYXBlOndpbmRvdy13aWR0aD0iNjQwIiBpbmtzY2FwZTp3aW5kb3ctaGVpZ2h0PSI0ODAiIGlkPSJuYW1lZHZpZXcxNjE0IiBzaG93Z3JpZD0iZmFsc2UiIGlua3NjYXBlOnpvb209IjYuMjYiIGlua3NjYXBlOmN4PSIyNSIgaW5rc2NhcGU6Y3k9IjI1IiBpbmtzY2FwZTp3aW5kb3cteD0iMCIgaW5rc2NhcGU6d2luZG93LXk9IjAiIGlua3NjYXBlOndpbmRvdy1tYXhpbWl6ZWQ9IjEiIGlua3NjYXBlOmN1cnJlbnQtbGF5ZXI9IkxheWVyXzEiLz4mI3hhOzxwYXRoIGZpbGw9IiM3RkJBMDAiIGQ9Ik05LjUsMThoLTRDNS4yMjQsMTgsNSwxNy43NzYsNSwxNy41di0zQzUsMTQuMjI0LDUuMjI0LDE0LDUuNSwxNGg0YzAuMjc2LDAsMC41LDAuMjI0LDAuNSwwLjV2MyAgQzEwLDE3Ljc3Niw5Ljc3NiwxOCw5LjUsMTh6IiBpZD0icGF0aDE1NzciLz4mI3hhOzxwYXRoIGZpbGw9IiM3RkJBMDAiIGQ9Ik05LjUsMjVoLTRDNS4yMjQsMjUsNSwyNC43NzYsNSwyNC41di0zQzUsMjEuMjI0LDUuMjI0LDIxLDUuNSwyMWg0YzAuMjc2LDAsMC41LDAuMjI0LDAuNSwwLjV2MyAgQzEwLDI0Ljc3Niw5Ljc3NiwyNSw5LjUsMjV6IiBpZD0icGF0aDE1NzkiLz4mI3hhOzxwYXRoIGZpbGw9IiM3RkJBMDAiIGQ9Ik05LjUsMTFoLTRDNS4yMjQsMTEsNSwxMC43NzYsNSwxMC41di0zQzUsNy4yMjQsNS4yMjQsNyw1LjUsN2g0QzkuNzc2LDcsMTAsNy4yMjQsMTAsNy41djMgIEMxMCwxMC43NzYsOS43NzYsMTEsOS41LDExeiIgaWQ9InBhdGgxNTgxIi8+JiN4YTs8cGF0aCBmaWxsPSIjN0E3QTdBIiBkPSJNMCwxLjV2NkMwLDcuNzc2LDAuMjI0LDgsMC41LDhoMkMyLjc3Niw4LDMsNy43NzYsMyw3LjV2LTNDMyw0LjIyNCwzLjIyNCw0LDMuNSw0aDIxICBDMjQuNzc2LDQsMjUsNC4yMjQsMjUsNC41djNDMjUsNy43NzYsMjUuMjI0LDgsMjUuNSw4aDJDMjcuNzc2LDgsMjgsNy43NzYsMjgsNy41di02QzI4LDEuMjI0LDI3Ljc3NiwxLDI3LjUsMWgtMjcgIEMwLjIyNCwxLDAsMS4yMjQsMCwxLjV6IiBpZD0icGF0aDE1ODMiLz4mI3hhOzxwYXRoIGZpbGw9IiM3RkJBMDAiIGQ9Ik0yMC41LDI3aC00Yy0wLjI3NiwwLTAuNS0wLjIyNC0wLjUtMC41di0zYzAtMC4yNzYsMC4yMjQtMC41LDAuNS0wLjVoNGMwLjI3NiwwLDAuNSwwLjIyNCwwLjUsMC41djMgIEMyMSwyNi43NzYsMjAuNzc2LDI3LDIwLjUsMjd6IiBpZD0icGF0aDE1ODUiLz4mI3hhOzxwYXRoIGZpbGw9IiM3RkJBMDAiIGQ9Ik0yMC41LDM0aC00Yy0wLjI3NiwwLTAuNS0wLjIyNC0wLjUtMC41di0zYzAtMC4yNzYsMC4yMjQtMC41LDAuNS0wLjVoNGMwLjI3NiwwLDAuNSwwLjIyNCwwLjUsMC41djMgIEMyMSwzMy43NzYsMjAuNzc2LDM0LDIwLjUsMzR6IiBpZD0icGF0aDE1ODciLz4mI3hhOzxwYXRoIGZpbGw9IiM3RkJBMDAiIGQ9Ik0yMC41LDIwaC00Yy0wLjI3NiwwLTAuNS0wLjIyNC0wLjUtMC41di0zYzAtMC4yNzYsMC4yMjQtMC41LDAuNS0wLjVoNGMwLjI3NiwwLDAuNSwwLjIyNCwwLjUsMC41djMgIEMyMSwxOS43NzYsMjAuNzc2LDIwLDIwLjUsMjB6IiBpZD0icGF0aDE1ODkiLz4mI3hhOzxwYXRoIGZpbGw9IiM3QTdBN0EiIGQ9Ik0xMSwxMC41djZjMCwwLjI3NiwwLjIyNCwwLjUsMC41LDAuNWgyYzAuMjc2LDAsMC41LTAuMjI0LDAuNS0wLjV2LTNjMC0wLjI3NiwwLjIyNC0wLjUsMC41LTAuNWgyMSAgYzAuMjc2LDAsMC41LDAuMjI0LDAuNSwwLjV2M2MwLDAuMjc2LDAuMjI0LDAuNSwwLjUsMC41aDJjMC4yNzYsMCwwLjUtMC4yMjQsMC41LTAuNXYtNmMwLTAuMjc2LTAuMjI0LTAuNS0wLjUtMC41aC0yNyAgQzExLjIyNCwxMCwxMSwxMC4yMjQsMTEsMTAuNXoiIGlkPSJwYXRoMTU5MSIvPiYjeGE7PHBhdGggZmlsbD0iIzdGQkEwMCIgZD0iTTMxLjUsMzZoLTRjLTAuMjc2LDAtMC41LTAuMjI0LTAuNS0wLjV2LTNjMC0wLjI3NiwwLjIyNC0wLjUsMC41LTAuNWg0YzAuMjc2LDAsMC41LDAuMjI0LDAuNSwwLjV2MyAgQzMyLDM1Ljc3NiwzMS43NzYsMzYsMzEuNSwzNnoiIGlkPSJwYXRoMTU5MyIvPiYjeGE7PHBhdGggZmlsbD0iIzdGQkEwMCIgZD0iTTM4LjUsMzJoLTRjLTAuMjc2LDAtMC41LTAuMjI0LTAuNS0wLjV2LTNjMC0wLjI3NiwwLjIyNC0wLjUsMC41LTAuNWg0YzAuMjc2LDAsMC41LDAuMjI0LDAuNSwwLjV2MyAgQzM5LDMxLjc3NiwzOC43NzYsMzIsMzguNSwzMnoiIGlkPSJwYXRoMTU5NSIvPiYjeGE7PHBhdGggZmlsbD0iIzdGQkEwMCIgZD0iTTM4LjUsMzloLTRjLTAuMjc2LDAtMC41LTAuMjI0LTAuNS0wLjV2LTNjMC0wLjI3NiwwLjIyNC0wLjUsMC41LTAuNWg0YzAuMjc2LDAsMC41LDAuMjI0LDAuNSwwLjV2MyAgQzM5LDM4Ljc3NiwzOC43NzYsMzksMzguNSwzOXoiIGlkPSJwYXRoMTU5NyIvPiYjeGE7PHBhdGggZmlsbD0iIzdGQkEwMCIgZD0iTTQ1LjUsMzZoLTRjLTAuMjc2LDAtMC41LTAuMjI0LTAuNS0wLjV2LTNjMC0wLjI3NiwwLjIyNC0wLjUsMC41LTAuNWg0YzAuMjc2LDAsMC41LDAuMjI0LDAuNSwwLjV2MyAgQzQ2LDM1Ljc3Niw0NS43NzYsMzYsNDUuNSwzNnoiIGlkPSJwYXRoMTU5OSIvPiYjeGE7PHBhdGggZmlsbD0iIzdGQkEwMCIgZD0iTTMxLjUsNDNoLTRjLTAuMjc2LDAtMC41LTAuMjI0LTAuNS0wLjV2LTNjMC0wLjI3NiwwLjIyNC0wLjUsMC41LTAuNWg0YzAuMjc2LDAsMC41LDAuMjI0LDAuNSwwLjV2MyAgQzMyLDQyLjc3NiwzMS43NzYsNDMsMzEuNSw0M3oiIGlkPSJwYXRoMTYwMSIvPiYjeGE7PHBhdGggZmlsbD0iIzdGQkEwMCIgZD0iTTMxLjUsMjloLTRjLTAuMjc2LDAtMC41LTAuMjI0LTAuNS0wLjV2LTNjMC0wLjI3NiwwLjIyNC0wLjUsMC41LTAuNWg0YzAuMjc2LDAsMC41LDAuMjI0LDAuNSwwLjV2MyAgQzMyLDI4Ljc3NiwzMS43NzYsMjksMzEuNSwyOXoiIGlkPSJwYXRoMTYwMyIvPiYjeGE7PHBhdGggZmlsbD0iIzM5OTlDNiIgZD0iTTIyLDE5LjV2NmMwLDAuMjc2LDAuMjI0LDAuNSwwLjUsMC41aDJjMC4yNzYsMCwwLjUtMC4yMjQsMC41LTAuNXYtM2MwLTAuMjc2LDAuMjI0LTAuNSwwLjUtMC41aDIxICBjMC4yNzYsMCwwLjUsMC4yMjQsMC41LDAuNXYzYzAsMC4yNzYsMC4yMjQsMC41LDAuNSwwLjVoMmMwLjI3NiwwLDAuNS0wLjIyNCwwLjUtMC41di02YzAtMC4yNzYtMC4yMjQtMC41LTAuNS0wLjVoLTI3ICBDMjIuMjI0LDE5LDIyLDE5LjIyNCwyMiwxOS41eiIgaWQ9InBhdGgxNjA1Ii8+JiN4YTs8cGF0aCBmaWxsPSIjMzk5OUM2IiBkPSJNNTAsNDguNXYtNmMwLTAuMjc2LTAuMjI0LTAuNS0wLjUtMC41aC0yYy0wLjI3NiwwLTAuNSwwLjIyNC0wLjUsMC41djNjMCwwLjI3Ni0wLjIyNCwwLjUtMC41LDAuNWgtMjEgIGMtMC4yNzYsMC0wLjUtMC4yMjQtMC41LTAuNXYtM2MwLTAuMjc2LTAuMjI0LTAuNS0wLjUtMC41aC0yYy0wLjI3NiwwLTAuNSwwLjIyNC0wLjUsMC41djZjMCwwLjI3NiwwLjIyNCwwLjUsMC41LDAuNWgyNyAgQzQ5Ljc3Niw0OSw1MCw0OC43NzYsNTAsNDguNXoiIGlkPSJwYXRoMTYwNyIvPiYjeGE7PHBhdGggZmlsbD0iIzdBN0E3QSIgZD0iTTExLDI4SDMuNUMzLjIyNCwyOCwzLDI3Ljc3NiwzLDI3LjV2LTNDMywyNC4yMjQsMi43NzYsMjQsMi41LDI0aC0yQzAuMjI0LDI0LDAsMjQuMjI0LDAsMjQuNXY2ICBDMCwzMC43NzYsMC4yMjQsMzEsMC41LDMxSDExVjI4eiIgaWQ9InBhdGgxNjA5Ii8+JiN4YTs8cGF0aCBmaWxsPSIjN0E3QTdBIiBkPSJNMjIsMzdoLTcuNWMtMC4yNzYsMC0wLjUtMC4yMjQtMC41LTAuNXYtM2MwLTAuMjc2LTAuMjI0LTAuNS0wLjUtMC41aC0yYy0wLjI3NiwwLTAuNSwwLjIyNC0wLjUsMC41djYgIGMwLDAuMjc2LDAuMjI0LDAuNSwwLjUsMC41SDIyVjM3eiIgaWQ9InBhdGgxNjExIi8+JiN4YTs8L3N2Zz4=;fillColor=none;" vertex="1" parent="1">
          <mxGeometry x="30" y="380" width="50" height="50" as="geometry" />
        </mxCell>
        <mxCell id="HRe7P6NsOLEz5icDgToi-16" value="" style="aspect=fixed;html=1;points=[];align=center;image;fontSize=12;image=img/lib/azure2/integration/API_Management_Services.svg;fillColor=none;" vertex="1" parent="1">
          <mxGeometry x="278.5" y="10" width="61" height="56.31" as="geometry" />
        </mxCell>
        <mxCell id="HRe7P6NsOLEz5icDgToi-25" value="" style="shape=image;verticalLabelPosition=bottom;labelBackgroundColor=#ffffff;verticalAlign=top;aspect=fixed;imageAspect=0;image=https://www.docker.com/blog/wp-content/uploads/couchbase-logo-1-e1450329453533.png;" vertex="1" parent="1">
          <mxGeometry x="464" y="189.25" width="90.81" height="23.75" as="geometry" />
        </mxCell>
        <mxCell id="HRe7P6NsOLEz5icDgToi-29" value="AKS Subnet" style="points=[[0,0],[0.25,0],[0.5,0],[0.75,0],[1,0],[1,0.25],[1,0.5],[1,0.75],[1,1],[0.75,1],[0.5,1],[0.25,1],[0,1],[0,0.75],[0,0.5],[0,0.25]];outlineConnect=0;html=1;whiteSpace=wrap;fontSize=12;fontStyle=0;shape=mxgraph.aws4.group;grIcon=mxgraph.aws4.group_security_group;grStroke=0;strokeColor=#666666;fillColor=#f5f5f5;verticalAlign=top;align=left;spacingLeft=30;fontColor=#333333;strokeWidth=7;perimeterSpacing=2;shadow=0;opacity=80;" vertex="1" parent="1">
          <mxGeometry x="444" y="390" width="210" height="200" as="geometry" />
        </mxCell>
        <mxCell id="HRe7P6NsOLEz5icDgToi-31" value="" style="shape=image;verticalLabelPosition=bottom;labelBackgroundColor=#ffffff;verticalAlign=top;aspect=fixed;imageAspect=0;image=https://www.socallinuxexpo.org/sites/default/files/logos/Timescale_Logo_Tiger_Stack_FullColor_Web_600x350.png;" vertex="1" parent="1">
          <mxGeometry x="446.72" y="439" width="65.43" height="38.88" as="geometry" />
        </mxCell>
        <mxCell id="HRe7P6NsOLEz5icDgToi-34" value="" style="rounded=0;whiteSpace=wrap;html=1;shadow=0;dashed=1;labelBackgroundColor=none;strokeColor=#B3B3B3;strokeWidth=1;fillColor=none;gradientColor=none;opacity=80;" vertex="1" parent="1">
          <mxGeometry x="476.72" y="448" width="157.28" height="122" as="geometry" />
        </mxCell>
        <mxCell id="HRe7P6NsOLEz5icDgToi-32" value="" style="aspect=fixed;html=1;points=[];align=center;image;fontSize=12;image=img/lib/azure2/compute/VM_Scale_Sets.svg;shadow=0;labelBackgroundColor=none;strokeColor=default;strokeWidth=7;fillColor=default;gradientColor=none;opacity=80;" vertex="1" parent="1">
          <mxGeometry x="280" y="380" width="68" height="68" as="geometry" />
        </mxCell>
        <mxCell id="HRe7P6NsOLEz5icDgToi-41" style="edgeStyle=orthogonalEdgeStyle;rounded=0;orthogonalLoop=1;jettySize=auto;html=1;exitX=0.5;exitY=0;exitDx=0;exitDy=0;" edge="1" parent="1" source="HRe7P6NsOLEz5icDgToi-33" target="HRe7P6NsOLEz5icDgToi-16">
          <mxGeometry relative="1" as="geometry" />
        </mxCell>
        <mxCell id="HRe7P6NsOLEz5icDgToi-33" value="" style="rounded=0;whiteSpace=wrap;html=1;shadow=0;labelBackgroundColor=none;strokeColor=#9999FF;strokeWidth=1;fillColor=none;gradientColor=none;opacity=80;dashed=1;" vertex="1" parent="1">
          <mxGeometry x="249" y="345" width="120" height="120" as="geometry" />
        </mxCell>
        <mxCell id="HRe7P6NsOLEz5icDgToi-36" value="" style="aspect=fixed;html=1;points=[];align=center;image;fontSize=12;image=img/lib/azure2/compute/VM_Scale_Sets.svg;shadow=0;dashed=1;labelBackgroundColor=none;strokeColor=default;strokeWidth=1;fillColor=none;gradientColor=none;opacity=80;" vertex="1" parent="1">
          <mxGeometry x="515" y="226" width="68" height="68" as="geometry" />
        </mxCell>
        <mxCell id="HRe7P6NsOLEz5icDgToi-4" value="" style="shape=image;verticalLabelPosition=bottom;verticalAlign=top;imageAspect=0;aspect=fixed;image=data:image/svg+xml,PHN2ZyB4bWxuczpkYz0iaHR0cDovL3B1cmwub3JnL2RjL2VsZW1lbnRzLzEuMS8iIHhtbG5zOmNjPSJodHRwOi8vY3JlYXRpdmVjb21tb25zLm9yZy9ucyMiIHhtbG5zOnJkZj0iaHR0cDovL3d3dy53My5vcmcvMTk5OS8wMi8yMi1yZGYtc3ludGF4LW5zIyIgeG1sbnM6c3ZnPSJodHRwOi8vd3d3LnczLm9yZy8yMDAwL3N2ZyIgeG1sbnM9Imh0dHA6Ly93d3cudzMub3JnLzIwMDAvc3ZnIiB4bWxuczpzb2RpcG9kaT0iaHR0cDovL3NvZGlwb2RpLnNvdXJjZWZvcmdlLm5ldC9EVEQvc29kaXBvZGktMC5kdGQiIHhtbG5zOmlua3NjYXBlPSJodHRwOi8vd3d3Lmlua3NjYXBlLm9yZy9uYW1lc3BhY2VzL2lua3NjYXBlIiB2aWV3Qm94PSIwIDAgNTAgNTAiIGNsYXNzPSJmeHMtcG9ydGFsLXN2ZyIgcm9sZT0icHJlc2VudGF0aW9uIiBmb2N1c2FibGU9ImZhbHNlIiBpZD0iRnhTeW1ib2wwLTA1ZSIgdmVyc2lvbj0iMS4xIiBzb2RpcG9kaTpkb2NuYW1lPSJLdWJlcm5ldGVzIFNlcnZpY2VzLnN2ZyIgaW5rc2NhcGU6dmVyc2lvbj0iMC45Mi4zICgyNDA1NTQ2LCAyMDE4LTAzLTExKSI+JiN4YTsgIDxtZXRhZGF0YSBpZD0ibWV0YWRhdGEyMjY4Ij4mI3hhOyAgICA8cmRmOlJERj4mI3hhOyAgICAgIDxjYzpXb3JrIHJkZjphYm91dD0iIj4mI3hhOyAgICAgICAgPGRjOmZvcm1hdD5pbWFnZS9zdmcreG1sPC9kYzpmb3JtYXQ+JiN4YTsgICAgICAgIDxkYzp0eXBlIHJkZjpyZXNvdXJjZT0iaHR0cDovL3B1cmwub3JnL2RjL2RjbWl0eXBlL1N0aWxsSW1hZ2UiLz4mI3hhOyAgICAgICAgPGRjOnRpdGxlLz4mI3hhOyAgICAgIDwvY2M6V29yaz4mI3hhOyAgICA8L3JkZjpSREY+JiN4YTsgIDwvbWV0YWRhdGE+JiN4YTsgIDxkZWZzIGlkPSJkZWZzMjI2NiIvPiYjeGE7ICA8c29kaXBvZGk6bmFtZWR2aWV3IHBhZ2Vjb2xvcj0iI2ZmZmZmZiIgYm9yZGVyY29sb3I9IiM2NjY2NjYiIGJvcmRlcm9wYWNpdHk9IjEiIG9iamVjdHRvbGVyYW5jZT0iMTAiIGdyaWR0b2xlcmFuY2U9IjEwIiBndWlkZXRvbGVyYW5jZT0iMTAiIGlua3NjYXBlOnBhZ2VvcGFjaXR5PSIwIiBpbmtzY2FwZTpwYWdlc2hhZG93PSIyIiBpbmtzY2FwZTp3aW5kb3ctd2lkdGg9IjY0MCIgaW5rc2NhcGU6d2luZG93LWhlaWdodD0iNDgwIiBpZD0ibmFtZWR2aWV3MjI2NCIgc2hvd2dyaWQ9ImZhbHNlIiBpbmtzY2FwZTp6b29tPSI2LjI2IiBpbmtzY2FwZTpjeD0iMjUiIGlua3NjYXBlOmN5PSIyNSIgaW5rc2NhcGU6d2luZG93LXg9IjAiIGlua3NjYXBlOndpbmRvdy15PSIwIiBpbmtzY2FwZTp3aW5kb3ctbWF4aW1pemVkPSIxIiBpbmtzY2FwZTpjdXJyZW50LWxheWVyPSJGeFN5bWJvbDAtMDVlIi8+JiN4YTsgIDxnIGlkPSJnMjI2MSI+JiN4YTsgICAgPHRpdGxlIGlkPSJ0aXRsZTIyMzEiLz4mI3hhOyAgICA8cGF0aCBkPSJNMjIuODkxIDE1Ljk0OWwtNy42NDcgMi45MjFWNi41MzdsNy42NDcgMi43MDh6IiBjbGFzcz0ibXNwb3J0YWxmeC1zdmctYzE3IiBmaWxsPSIjODA0OTk4IiBpZD0icGF0aDIyMzMiLz4mI3hhOyAgICA8cGF0aCBkPSJNOC4yODkgOC41NjV2OC4xbDUuNzI4IDIuMTc5VjYuNTM3TDguMjg5IDguNTY1em0uNjI4IDcuNTEzbC0uMzEyLS4wOTdWOS4yNzRsLjMxMi0uMDg4LjMyOC0uMDkyLjM0OS0uMDk4djcuMjkybC0uMzQ5LS4xMDgtLjMyOC0uMTAyem0xLjQzNi40NDVsLS4zOTItLjEyMXYtNy41MWwuMzkyLS4xMS40MTUtLjExNy40NDQtLjEyNXY4LjI0OWwtLjQ0NC0uMTM4LS40MTUtLjEyOHptMS44NC41NjlsLS41MDgtLjE1N1Y4LjQwN2wuNTA4LS4xNDMuNTQyLS4xNTMuNTg2LS4xNjV2OS40OTZsLS41ODYtLjE4MS0uNTQyLS4xNjl6IiBjbGFzcz0ibXNwb3J0YWxmeC1zdmctYzIwIiBmaWxsPSIjNjgyMTdhIiBpZD0icGF0aDIyMzUiLz4mI3hhOyAgICA8cGF0aCBkPSJNNDAuNzkxIDE1Ljk0OWwtNy42NDggMi45MjFWNi41MzdsNy42NDggMi43MDh6IiBjbGFzcz0ibXNwb3J0YWxmeC1zdmctYzE3IiBmaWxsPSIjODA0OTk4IiBpZD0icGF0aDIyMzciLz4mI3hhOyAgICA8cGF0aCBkPSJNMjYuMTg5IDguNTY1djguMWw1LjcyOCAyLjE3OVY2LjUzN2wtNS43MjggMi4wMjh6bS42MjcgNy41MTNsLS4zMTItLjA5N1Y5LjI3NGwuMzEyLS4wODguMzI4LS4wOTIuMzQ5LS4wOTh2Ny4yOTJsLS4zNDktLjEwOC0uMzI4LS4xMDJ6bTEuNDM2LjQ0NWwtLjM5Mi0uMTIxdi03LjUxbC4zOTItLjExLjQxNS0uMTE3LjQ0NC0uMTI1djguMjQ5bC0uNDQ0LS4xMzgtLjQxNS0uMTI4em0xLjg0LjU2OWwtLjUwOC0uMTU3VjguNDA3bC41MDgtLjE0My41NDItLjE1My41ODYtLjE2NXY5LjQ5NmwtLjU4Ni0uMTgxLS41NDItLjE2OXoiIGNsYXNzPSJtc3BvcnRhbGZ4LXN2Zy1jMjAiIGZpbGw9IiM2ODIxN2EiIGlkPSJwYXRoMjIzOSIvPiYjeGE7ICAgIDxwYXRoIGQ9Ik0yMi44OTEgNDAuNTQzbC03LjY0NyAyLjkyVjMxLjEzbDcuNjQ3IDIuNzA5eiIgY2xhc3M9Im1zcG9ydGFsZngtc3ZnLWMxNyIgZmlsbD0iIzgwNDk5OCIgaWQ9InBhdGgyMjQxIi8+JiN4YTsgICAgPHBhdGggZD0iTTguMjg5IDMzLjE1OXY4LjFsNS43MjggMi4xNzlWMzEuMTNsLTUuNzI4IDIuMDI5em0uNjI4IDcuNTEzbC0uMzEyLS4wOTd2LTYuNzA3bC4zMTItLjA4OC4zMjgtLjA5Mi4zNDktLjA5OHY3LjI5MmwtLjM0OS0uMTA4LS4zMjgtLjEwMnptMS40MzYuNDQ0bC0uMzkyLS4xMjF2LTcuNTA5bC4zOTItLjExMS40MTUtLjExNy40NDQtLjEyNXY4LjI0OWwtLjQ0NC0uMTM4LS40MTUtLjEyOHptMS44NC41N2wtLjUwOC0uMTU3VjMzbC41MDgtLjE0My41NDItLjE1My41ODYtLjE2NXY5LjQ5NmwtLjU4Ni0uMTgxLS41NDItLjE2OHoiIGNsYXNzPSJtc3BvcnRhbGZ4LXN2Zy1jMjAiIGZpbGw9IiM2ODIxN2EiIGlkPSJwYXRoMjI0MyIvPiYjeGE7ICAgIDxwYXRoIGQ9Ik00MC43OTEgNDAuNTQzbC03LjY0OCAyLjkyVjMxLjEzbDcuNjQ4IDIuNzA5eiIgY2xhc3M9Im1zcG9ydGFsZngtc3ZnLWMxNyIgZmlsbD0iIzgwNDk5OCIgaWQ9InBhdGgyMjQ1Ii8+JiN4YTsgICAgPHBhdGggZD0iTTI2LjE4OSAzMy4xNTl2OC4xbDUuNzI4IDIuMTc5VjMxLjEzbC01LjcyOCAyLjAyOXptLjYyNyA3LjUxM2wtLjMxMi0uMDk3di02LjcwN2wuMzEyLS4wODguMzI4LS4wOTIuMzQ5LS4wOTh2Ny4yOTJsLS4zNDktLjEwOC0uMzI4LS4xMDJ6bTEuNDM2LjQ0NGwtLjM5Mi0uMTIxdi03LjUwOWwuMzkyLS4xMTEuNDE1LS4xMTcuNDQ0LS4xMjV2OC4yNDlsLS40NDQtLjEzOC0uNDE1LS4xMjh6bTEuODQuNTdsLS41MDgtLjE1N1YzM2wuNTA4LS4xNDMuNTQyLS4xNTMuNTg2LS4xNjV2OS40OTZsLS41ODYtLjE4MS0uNTQyLS4xNjh6IiBjbGFzcz0ibXNwb3J0YWxmeC1zdmctYzIwIiBmaWxsPSIjNjgyMTdhIiBpZD0icGF0aDIyNDciLz4mI3hhOyAgICA8cGF0aCBkPSJNMzIuNDE3IDI4LjIxbC03LjY0OCAyLjkyVjE4Ljc5OGw3LjY0OCAyLjcwOHoiIGNsYXNzPSJtc3BvcnRhbGZ4LXN2Zy1jMTciIGZpbGw9IiM4MDQ5OTgiIGlkPSJwYXRoMjI0OSIvPiYjeGE7ICAgIDxwYXRoIGQ9Ik0xNy44MTUgMjAuODI2djguMWw1LjcyOCAyLjE3OVYxOC43OThsLTUuNzI4IDIuMDI4em0uNjI3IDcuNTEzbC0uMzEyLS4wOTd2LTYuNzA3bC4zMTItLjA4OC4zMjgtLjA5Mi4zNDktLjA5OHY3LjI5MmwtLjM0OS0uMTA4LS4zMjgtLjEwMnptMS40MzYuNDQ1bC0uMzkyLS4xMjF2LTcuNTA5bC4zOTItLjExLjQxNS0uMTE3LjQ0NC0uMTI1djguMjQ5bC0uNDQ0LS4xMzgtLjQxNS0uMTI5em0xLjg0LjU2OWwtLjUwOC0uMTU3di04LjUyOGwuNTA4LS4xNDMuNTQyLS4xNTMuNTg2LS4xNjV2OS40OTZsLS41ODYtLjE4MS0uNTQyLS4xNjl6IiBjbGFzcz0ibXNwb3J0YWxmeC1zdmctYzIwIiBmaWxsPSIjNjgyMTdhIiBpZD0icGF0aDIyNTEiLz4mI3hhOyAgICA8cGF0aCBkPSJNMTQuNjEgMjguMjFsLTcuNjQ4IDIuOTJWMTguNzk4bDcuNjQ4IDIuNzA4eiIgY2xhc3M9Im1zcG9ydGFsZngtc3ZnLWMxNyIgZmlsbD0iIzgwNDk5OCIgaWQ9InBhdGgyMjUzIi8+JiN4YTsgICAgPHBhdGggZD0iTS4wMDggMjAuODI2djguMWw1LjcyOCAyLjE3OVYxOC43OThMLjAwOCAyMC44MjZ6bS42MjcgNy41MTNsLS4zMTItLjA5N3YtNi43MDdsLjMxMi0uMDg4LjMyOC0uMDkyLjM0OS0uMDk4djcuMjkybC0uMzQ5LS4xMDgtLjMyOC0uMTAyem0xLjQzNi40NDVsLS4zOTItLjEyMXYtNy41MDlsLjM5Mi0uMTEuNDE1LS4xMTcuNDQ1LS4xMjd2OC4yNDlsLS40NDQtLjEzOC0uNDE2LS4xMjd6bTEuODQuNTY5bC0uNTA4LS4xNTd2LTguNTI4bC41MDgtLjE0My41NDItLjE1My41ODYtLjE2NXY5LjQ5NmwtLjU4Ni0uMTgxLS41NDItLjE2OXoiIGNsYXNzPSJtc3BvcnRhbGZ4LXN2Zy1jMjAiIGZpbGw9IiM2ODIxN2EiIGlkPSJwYXRoMjI1NSIvPiYjeGE7ICAgIDxwYXRoIGQ9Ik01MCAyOC4yMWwtNy42NDggMi45MlYxOC43OThMNTAgMjEuNTA2eiIgY2xhc3M9Im1zcG9ydGFsZngtc3ZnLWMxNyIgZmlsbD0iIzgwNDk5OCIgaWQ9InBhdGgyMjU3Ii8+JiN4YTsgICAgPHBhdGggZD0iTTM1LjM5OCAyMC44MjZ2OC4xbDUuNzI4IDIuMTc5VjE4Ljc5OGwtNS43MjggMi4wMjh6bS42MjcgNy41MTNsLS4zMTItLjA5N3YtNi43MDdsLjMxMi0uMDg4LjMyOC0uMDkyLjM0OS0uMDk4djcuMjkybC0uMzQ5LS4xMDgtLjMyOC0uMTAyem0xLjQzNi40NDVsLS4zOTItLjEyMXYtNy41MDlsLjM5Mi0uMTEuNDE1LS4xMTcuNDQ0LS4xMjV2OC4yNDlsLS40NDQtLjEzOC0uNDE1LS4xMjl6bTEuODQuNTY5bC0uNTA4LS4xNTd2LTguNTI4bC41MDgtLjE0My41NDItLjE1My41ODYtLjE2NXY5LjQ5NmwtLjU4Ni0uMTgxLS41NDItLjE2OXoiIGNsYXNzPSJtc3BvcnRhbGZ4LXN2Zy1jMjAiIGZpbGw9IiM2ODIxN2EiIGlkPSJwYXRoMjI1OSIvPiYjeGE7ICA8L2c+JiN4YTs8L3N2Zz4=" vertex="1" parent="1">
          <mxGeometry x="526.28" y="484" width="56" height="56" as="geometry" />
        </mxCell>
        <mxCell id="HRe7P6NsOLEz5icDgToi-38" value="" style="group" vertex="1" connectable="0" parent="1">
          <mxGeometry x="249" y="650" width="343" height="80" as="geometry" />
        </mxCell>
        <mxCell id="HRe7P6NsOLEz5icDgToi-37" value="" style="rounded=1;whiteSpace=wrap;html=1;shadow=0;dashed=1;labelBackgroundColor=none;strokeColor=default;strokeWidth=1;fillColor=none;gradientColor=none;opacity=80;" vertex="1" parent="HRe7P6NsOLEz5icDgToi-38">
          <mxGeometry width="343" height="80" as="geometry" />
        </mxCell>
        <mxCell id="HRe7P6NsOLEz5icDgToi-17" value="" style="aspect=fixed;html=1;points=[];align=center;image;fontSize=12;image=img/lib/azure2/management_governance/Monitor.svg;fillColor=none;" vertex="1" parent="HRe7P6NsOLEz5icDgToi-38">
          <mxGeometry x="155.7543424317618" y="15.600000000000001" width="44.84764267990075" height="44.84764267990075" as="geometry" />
        </mxCell>
        <mxCell id="HRe7P6NsOLEz5icDgToi-18" value="" style="aspect=fixed;html=1;points=[];align=center;image;fontSize=12;image=img/lib/azure2/management_governance/Log_Analytics_Workspaces.svg;fillColor=none;" vertex="1" parent="HRe7P6NsOLEz5icDgToi-38">
          <mxGeometry x="252.7816377171216" y="15.600000000000001" width="44.84764267990075" height="44.84764267990075" as="geometry" />
        </mxCell>
        <mxCell id="HRe7P6NsOLEz5icDgToi-19" value="" style="aspect=fixed;html=1;points=[];align=center;image;fontSize=12;image=img/lib/azure2/management_governance/Application_Insights.svg;fillColor=none;" vertex="1" parent="HRe7P6NsOLEz5icDgToi-38">
          <mxGeometry x="91.06947890818859" y="15.600000000000001" width="30.832754342431766" height="44.1468982630273" as="geometry" />
        </mxCell>
        <mxCell id="HRe7P6NsOLEz5icDgToi-20" value="" style="aspect=fixed;html=1;points=[];align=center;image;fontSize=12;image=img/lib/azure2/management_governance/Metrics.svg;fillColor=none;" vertex="1" parent="HRe7P6NsOLEz5icDgToi-38">
          <mxGeometry x="19.575682382133998" y="14" width="42.04466501240695" height="45.5483870967742" as="geometry" />
        </mxCell>
        <mxCell id="HRe7P6NsOLEz5icDgToi-71" value="" style="endArrow=classic;startArrow=classic;html=1;rounded=0;entryX=1;entryY=0.5;entryDx=0;entryDy=0;exitX=0;exitY=0.5;exitDx=0;exitDy=0;edgeStyle=orthogonalEdgeStyle;" edge="1" parent="1" source="HRe7P6NsOLEz5icDgToi-34" target="HRe7P6NsOLEz5icDgToi-33">
          <mxGeometry width="50" height="50" relative="1" as="geometry">
            <mxPoint x="790" y="680" as="sourcePoint" />
            <mxPoint x="840" y="630" as="targetPoint" />
            <Array as="points">
              <mxPoint x="423" y="509" />
              <mxPoint x="423" y="405" />
            </Array>
          </mxGeometry>
        </mxCell>
        <mxCell id="HRe7P6NsOLEz5icDgToi-73" value="" style="endArrow=classic;startArrow=classic;html=1;rounded=0;entryX=0;entryY=0.5;entryDx=0;entryDy=0;exitX=1;exitY=0.5;exitDx=0;exitDy=0;edgeStyle=orthogonalEdgeStyle;" edge="1" parent="1" source="HRe7P6NsOLEz5icDgToi-33" target="HRe7P6NsOLEz5icDgToi-35">
          <mxGeometry width="50" height="50" relative="1" as="geometry">
            <mxPoint x="140" y="300" as="sourcePoint" />
            <mxPoint x="190" y="250" as="targetPoint" />
          </mxGeometry>
        </mxCell>
      </root>
    </mxGraphModel>
  </diagram>
  <diagram id="yx1zwlmf6z5muzNlWtQN" name="AKS cluster">
    <mxGraphModel dx="1038" dy="1647" grid="1" gridSize="10" guides="1" tooltips="1" connect="1" arrows="1" fold="1" page="1" pageScale="1" pageWidth="850" pageHeight="1100" math="0" shadow="0">
      <root>
        <mxCell id="vcM-8Kxd19stLzPDh3pf-0" />
        <mxCell id="vcM-8Kxd19stLzPDh3pf-1" parent="vcM-8Kxd19stLzPDh3pf-0" />
        <mxCell id="_TohCL1j5Xz9JUrsvs4M-10" value="" style="rounded=0;whiteSpace=wrap;html=1;shadow=0;labelBackgroundColor=none;strokeColor=#09090F;strokeWidth=2;fillColor=none;gradientColor=none;opacity=40;dashed=1;" vertex="1" parent="vcM-8Kxd19stLzPDh3pf-1">
          <mxGeometry x="620" y="-130" width="1090" height="1020" as="geometry" />
        </mxCell>
        <mxCell id="_TohCL1j5Xz9JUrsvs4M-9" value="" style="rounded=0;whiteSpace=wrap;html=1;shadow=0;labelBackgroundColor=none;strokeColor=#09090F;strokeWidth=2;fillColor=none;gradientColor=none;opacity=60;dashed=1;" vertex="1" parent="vcM-8Kxd19stLzPDh3pf-1">
          <mxGeometry x="760" y="-40" width="900" height="760" as="geometry" />
        </mxCell>
        <mxCell id="_TohCL1j5Xz9JUrsvs4M-1" value="" style="rounded=0;whiteSpace=wrap;html=1;shadow=0;labelBackgroundColor=none;strokeColor=#09090F;strokeWidth=1;fillColor=none;gradientColor=none;opacity=60;" vertex="1" parent="vcM-8Kxd19stLzPDh3pf-1">
          <mxGeometry x="830" y="60" width="780" height="500" as="geometry" />
        </mxCell>
        <mxCell id="_TohCL1j5Xz9JUrsvs4M-0" value="&lt;b&gt;Subnet&lt;/b&gt;" style="sketch=0;outlineConnect=0;gradientColor=none;html=1;whiteSpace=wrap;fontSize=12;fontStyle=0;shape=mxgraph.aws4.group;grIcon=mxgraph.aws4.group_subnet;strokeColor=#879196;fillColor=none;verticalAlign=top;align=left;spacingLeft=30;fontColor=#879196;dashed=0;shadow=0;labelBackgroundColor=none;opacity=80;" vertex="1" parent="vcM-8Kxd19stLzPDh3pf-1">
          <mxGeometry x="1050" y="70" width="520" height="470" as="geometry" />
        </mxCell>
        <mxCell id="_TohCL1j5Xz9JUrsvs4M-17" style="edgeStyle=orthogonalEdgeStyle;rounded=0;orthogonalLoop=1;jettySize=auto;html=1;entryX=0;entryY=0.5;entryDx=0;entryDy=0;strokeColor=#B3B3B3;strokeWidth=1;" edge="1" parent="vcM-8Kxd19stLzPDh3pf-1" source="vcM-8Kxd19stLzPDh3pf-4" target="vcM-8Kxd19stLzPDh3pf-5">
          <mxGeometry relative="1" as="geometry" />
        </mxCell>
        <mxCell id="vcM-8Kxd19stLzPDh3pf-4" value="" style="shape=image;verticalLabelPosition=bottom;verticalAlign=top;imageAspect=0;aspect=fixed;image=data:image/svg+xml,PHN2ZyB4bWxuczpkYz0iaHR0cDovL3B1cmwub3JnL2RjL2VsZW1lbnRzLzEuMS8iIHhtbG5zOmNjPSJodHRwOi8vY3JlYXRpdmVjb21tb25zLm9yZy9ucyMiIHhtbG5zOnJkZj0iaHR0cDovL3d3dy53My5vcmcvMTk5OS8wMi8yMi1yZGYtc3ludGF4LW5zIyIgeG1sbnM6c3ZnPSJodHRwOi8vd3d3LnczLm9yZy8yMDAwL3N2ZyIgeG1sbnM9Imh0dHA6Ly93d3cudzMub3JnLzIwMDAvc3ZnIiB4bWxuczpzb2RpcG9kaT0iaHR0cDovL3NvZGlwb2RpLnNvdXJjZWZvcmdlLm5ldC9EVEQvc29kaXBvZGktMC5kdGQiIHhtbG5zOmlua3NjYXBlPSJodHRwOi8vd3d3Lmlua3NjYXBlLm9yZy9uYW1lc3BhY2VzL2lua3NjYXBlIiB2ZXJzaW9uPSIxLjEiIGlkPSJMYXllcl8xIiB4PSIwcHgiIHk9IjBweCIgd2lkdGg9IjUwcHgiIGhlaWdodD0iNTBweCIgdmlld0JveD0iMCAwIDUwIDUwIiBlbmFibGUtYmFja2dyb3VuZD0ibmV3IDAgMCA1MCA1MCIgeG1sOnNwYWNlPSJwcmVzZXJ2ZSIgc29kaXBvZGk6ZG9jbmFtZT0iTG9hZCBCYWxhbmNlcnMuc3ZnIiBpbmtzY2FwZTp2ZXJzaW9uPSIwLjkyLjMgKDI0MDU1NDYsIDIwMTgtMDMtMTEpIj48bWV0YWRhdGEgaWQ9Im1ldGFkYXRhMTQxOSI+PHJkZjpSREY+PGNjOldvcmsgcmRmOmFib3V0PSIiPjxkYzpmb3JtYXQ+aW1hZ2Uvc3ZnK3htbDwvZGM6Zm9ybWF0PjxkYzp0eXBlIHJkZjpyZXNvdXJjZT0iaHR0cDovL3B1cmwub3JnL2RjL2RjbWl0eXBlL1N0aWxsSW1hZ2UiLz48ZGM6dGl0bGUvPjwvY2M6V29yaz48L3JkZjpSREY+PC9tZXRhZGF0YT48ZGVmcyBpZD0iZGVmczE0MTciLz48c29kaXBvZGk6bmFtZWR2aWV3IHBhZ2Vjb2xvcj0iI2ZmZmZmZiIgYm9yZGVyY29sb3I9IiM2NjY2NjYiIGJvcmRlcm9wYWNpdHk9IjEiIG9iamVjdHRvbGVyYW5jZT0iMTAiIGdyaWR0b2xlcmFuY2U9IjEwIiBndWlkZXRvbGVyYW5jZT0iMTAiIGlua3NjYXBlOnBhZ2VvcGFjaXR5PSIwIiBpbmtzY2FwZTpwYWdlc2hhZG93PSIyIiBpbmtzY2FwZTp3aW5kb3ctd2lkdGg9IjcxNiIgaW5rc2NhcGU6d2luZG93LWhlaWdodD0iNDgwIiBpZD0ibmFtZWR2aWV3MTQxNSIgc2hvd2dyaWQ9ImZhbHNlIiBpbmtzY2FwZTp6b29tPSI0LjcyIiBpbmtzY2FwZTpjeD0iMjUiIGlua3NjYXBlOmN5PSIyNSIgaW5rc2NhcGU6d2luZG93LXg9IjAiIGlua3NjYXBlOndpbmRvdy15PSIwIiBpbmtzY2FwZTp3aW5kb3ctbWF4aW1pemVkPSIwIiBpbmtzY2FwZTpjdXJyZW50LWxheWVyPSJMYXllcl8xIi8+JiN4YTs8cGF0aCBmaWxsPSIjN0ZCQTAwIiBkPSJNMjUuMDAxLDUwYy0xLjIzMiwwLTIuMzkyLTAuNDgtMy4yNjEtMS4zNTJMMS4zNTEsMjguMjZDMC40OTIsMjcuNDAxLDAsMjYuMjE0LDAsMjQuOTk5ICBjMC0xLjIxNCwwLjQ5Mi0yLjQwMiwxLjM1MS0zLjI2TDIxLjc0LDEuMzUxYzAuODcxLTAuODcyLDIuMDI5LTEuMzUyLDMuMjYxLTEuMzUyYzEuMjMxLDAsMi4zOSwwLjQ4LDMuMjYxLDEuMzUybDIwLjM4NiwyMC4zODggIEM0OS41MjEsMjIuNjA3LDUwLDIzLjc2Niw1MCwyNC45OTljMCwxLjIzMy0wLjQ3OSwyLjM5Mi0xLjM1MywzLjI2M0wyOC4yNjIsNDguNjQ4QzI3LjM5Miw0OS41MiwyNi4yMzIsNTAsMjUuMDAxLDUwIiBpZD0icGF0aDE0MDYiLz4mI3hhOzxwYXRoIGZpbGw9IiNGRkZGRkYiIGQ9Ik00NS42MTMsMjQuNjZMMzksMTguMDQ4djQuNjY4bC03LjAxNi0wLjAwNmMtMC42NzctMi40MTgtMi41NzMtNC4zMjgtNC45ODQtNS4wMlYxMWg0LjYxM0wyNSw0LjM4NyAgTDE4LjM4OCwxMUgyM3Y2LjY4OWMtMi40MDcsMC42OTItNC4zMDEsMi41OTYtNC45ODEsNS4wMDhMMTEsMjIuNjkxdi00LjYxOGwtNi42MTMsNi42MTNMMTEsMzEuMjk4VjI2LjYzbDcuMDIyLDAuMDA2ICBjMC42ODMsMi40MDcsMi41NzQsNC4zMDUsNC45NzgsNC45OTZ2NC42MzZjLTEsMC43MjgtMi41MjgsMi4yNTgtMi41MjgsNC4wNGMwLDIuNDgxLDIuMDMzLDQuNSw0LjUxNCw0LjVzNC41MS0yLjAxOSw0LjUxLTQuNSAgYzAtMS43NjItMS40OTYtMy4yNzQtMi40OTYtNC4wMTN2LTQuNjYzYzIuMzk5LTAuNjg5LDQuMjg5LTIuNTgzLDQuOTc1LTQuOTgzTDM5LDI2LjY1NXY0LjYxOEw0NS42MTMsMjQuNjZ6IiBpZD0icGF0aDE0MDgiLz4mI3hhOzxwYXRoIGZpbGw9IiM1OUI0RDkiIGQ9Ik0yNSwxOS40MDJjLTIuODk5LDAtNS4yNTgsMi4zNTktNS4yNTgsNS4yNThzMi4zNTksNS4yNTgsNS4yNTgsNS4yNThzNS4yNTgtMi4zNTgsNS4yNTgtNS4yNTggIFMyNy44OTksMTkuNDAyLDI1LDE5LjQwMnoiIGlkPSJwYXRoMTQxMCIvPiYjeGE7PHBhdGggb3BhY2l0eT0iMC4xNSIgZmlsbD0iI0ZGRkZGRiIgZD0iTTI4LjI2MiwxLjM1MWMtMC44NzEtMC44NzItMi4wMjktMS4zNTItMy4yNjEtMS4zNTJjLTEuMjMxLDAtMi4zODksMC40OC0zLjI2LDEuMzUyICBMMS4zNTIsMjEuNzM5QzAuNDkyLDIyLjU5NywwLDIzLjc4NSwwLDI0Ljk5OWMwLDEuMjE1LDAuNDkyLDIuNDAzLDEuMzUyLDMuMjYxbDExLjU0MywxMS41NDRMMzQuNjEsNy42OThMMjguMjYyLDEuMzUxeiIgaWQ9InBhdGgxNDEyIi8+JiN4YTs8L3N2Zz4=" vertex="1" parent="vcM-8Kxd19stLzPDh3pf-1">
          <mxGeometry x="1125" y="280.88" width="50" height="50" as="geometry" />
        </mxCell>
        <mxCell id="vcM-8Kxd19stLzPDh3pf-19" value="" style="verticalLabelPosition=bottom;html=1;verticalAlign=top;align=center;strokeColor=none;fillColor=#00BEF2;shape=mxgraph.azure.virtual_network;pointerEvents=1;" vertex="1" parent="vcM-8Kxd19stLzPDh3pf-1">
          <mxGeometry x="800" y="40" width="60" height="35" as="geometry" />
        </mxCell>
        <mxCell id="vcM-8Kxd19stLzPDh3pf-20" value="" style="group" vertex="1" connectable="0" parent="vcM-8Kxd19stLzPDh3pf-1">
          <mxGeometry x="1120" y="598" width="343" height="90" as="geometry" />
        </mxCell>
        <mxCell id="vcM-8Kxd19stLzPDh3pf-21" value="" style="rounded=1;whiteSpace=wrap;html=1;shadow=0;dashed=1;labelBackgroundColor=none;strokeColor=default;strokeWidth=1;fillColor=none;gradientColor=none;opacity=80;" vertex="1" parent="vcM-8Kxd19stLzPDh3pf-20">
          <mxGeometry width="343" height="80" as="geometry" />
        </mxCell>
        <mxCell id="vcM-8Kxd19stLzPDh3pf-22" value="Azure&amp;nbsp;Monitor" style="aspect=fixed;html=1;points=[];align=center;image;fontSize=12;image=img/lib/azure2/management_governance/Monitor.svg;fillColor=none;" vertex="1" parent="vcM-8Kxd19stLzPDh3pf-20">
          <mxGeometry x="206.5" y="18.85" width="31.15" height="31.15" as="geometry" />
        </mxCell>
        <mxCell id="vcM-8Kxd19stLzPDh3pf-23" value="Log Analytics" style="aspect=fixed;html=1;points=[];align=center;image;fontSize=12;image=img/lib/azure2/management_governance/Log_Analytics_Workspaces.svg;fillColor=none;" vertex="1" parent="vcM-8Kxd19stLzPDh3pf-20">
          <mxGeometry x="281.5" y="14" width="36" height="36" as="geometry" />
        </mxCell>
        <mxCell id="vcM-8Kxd19stLzPDh3pf-27" value="" style="shape=image;verticalLabelPosition=bottom;labelBackgroundColor=#ffffff;verticalAlign=top;aspect=fixed;imageAspect=0;image=https://iconape.com/wp-content/files/rz/181411/svg/grafana-seeklogo.com.svg;" vertex="1" parent="vcM-8Kxd19stLzPDh3pf-20">
          <mxGeometry x="90" width="85" height="85" as="geometry" />
        </mxCell>
        <mxCell id="vcM-8Kxd19stLzPDh3pf-30" value="" style="shape=image;verticalLabelPosition=bottom;labelBackgroundColor=#ffffff;verticalAlign=top;aspect=fixed;imageAspect=0;image=https://symbols-electrical.getvecta.com/stencil_92/47_prometheus.0053897f90.png;" vertex="1" parent="vcM-8Kxd19stLzPDh3pf-20">
          <mxGeometry x="6.5" y="7.5" width="70" height="70" as="geometry" />
        </mxCell>
        <mxCell id="vcM-8Kxd19stLzPDh3pf-37" value="Monitoring and Logging" style="text;html=1;strokeColor=none;fillColor=none;align=center;verticalAlign=middle;whiteSpace=wrap;rounded=0;shadow=0;labelBackgroundColor=none;opacity=80;fontStyle=1" vertex="1" parent="vcM-8Kxd19stLzPDh3pf-20">
          <mxGeometry x="90" y="-8" width="160" height="30" as="geometry" />
        </mxCell>
        <mxCell id="vcM-8Kxd19stLzPDh3pf-36" value="Internal Loadbalancer" style="text;html=1;strokeColor=none;fillColor=none;align=center;verticalAlign=middle;whiteSpace=wrap;rounded=0;shadow=0;labelBackgroundColor=none;opacity=80;" vertex="1" parent="vcM-8Kxd19stLzPDh3pf-1">
          <mxGeometry x="1090" y="330.88" width="120" height="30" as="geometry" />
        </mxCell>
        <mxCell id="LuQpnFzkrzRRneaYS8KH-16" style="edgeStyle=orthogonalEdgeStyle;rounded=0;orthogonalLoop=1;jettySize=auto;html=1;entryX=0;entryY=0.874;entryDx=0;entryDy=0;entryPerimeter=0;strokeColor=#99CCFF;" edge="1" parent="vcM-8Kxd19stLzPDh3pf-1" target="vcM-8Kxd19stLzPDh3pf-2">
          <mxGeometry relative="1" as="geometry">
            <mxPoint x="1123" y="452.6999999999998" as="sourcePoint" />
          </mxGeometry>
        </mxCell>
        <mxCell id="LuQpnFzkrzRRneaYS8KH-1" value="" style="aspect=fixed;html=1;points=[];align=center;image;fontSize=12;image=img/lib/azure2/networking/Service_Endpoint_Policies.svg;shadow=0;dashed=1;labelBackgroundColor=none;strokeColor=#09090F;strokeWidth=1;fillColor=none;gradientColor=none;opacity=80;" vertex="1" parent="vcM-8Kxd19stLzPDh3pf-1">
          <mxGeometry x="1060" y="110" width="38.75" height="40" as="geometry" />
        </mxCell>
        <mxCell id="LuQpnFzkrzRRneaYS8KH-2" value="" style="aspect=fixed;html=1;points=[];align=center;image;fontSize=12;image=img/lib/azure2/networking/Network_Security_Groups.svg;shadow=0;dashed=1;labelBackgroundColor=none;strokeColor=#09090F;strokeWidth=1;fillColor=none;gradientColor=none;opacity=80;" vertex="1" parent="vcM-8Kxd19stLzPDh3pf-1">
          <mxGeometry x="1063.68" y="170" width="31.39" height="38.12" as="geometry" />
        </mxCell>
        <mxCell id="_TohCL1j5Xz9JUrsvs4M-15" style="edgeStyle=orthogonalEdgeStyle;rounded=0;orthogonalLoop=1;jettySize=auto;html=1;entryX=0.5;entryY=1;entryDx=0;entryDy=0;strokeColor=#99CCFF;" edge="1" parent="vcM-8Kxd19stLzPDh3pf-1" target="LuQpnFzkrzRRneaYS8KH-13">
          <mxGeometry relative="1" as="geometry">
            <mxPoint x="1020" y="795.5" as="sourcePoint" />
          </mxGeometry>
        </mxCell>
        <mxCell id="LuQpnFzkrzRRneaYS8KH-6" value="" style="group" vertex="1" connectable="0" parent="vcM-8Kxd19stLzPDh3pf-1">
          <mxGeometry x="1260" y="90" width="278" height="410" as="geometry" />
        </mxCell>
        <mxCell id="vcM-8Kxd19stLzPDh3pf-2" value="" style="rounded=1;whiteSpace=wrap;html=1;shadow=0;labelBackgroundColor=none;strokeColor=#09090F;strokeWidth=2;fillColor=none;gradientColor=none;opacity=80;" vertex="1" parent="LuQpnFzkrzRRneaYS8KH-6">
          <mxGeometry x="28" y="30" width="250" height="380" as="geometry" />
        </mxCell>
        <mxCell id="vcM-8Kxd19stLzPDh3pf-5" value="" style="shape=image;verticalLabelPosition=bottom;verticalAlign=top;imageAspect=0;aspect=fixed;image=data:image/svg+xml,PHN2ZyB4bWxuczpkYz0iaHR0cDovL3B1cmwub3JnL2RjL2VsZW1lbnRzLzEuMS8iIHhtbG5zOmNjPSJodHRwOi8vY3JlYXRpdmVjb21tb25zLm9yZy9ucyMiIHhtbG5zOnJkZj0iaHR0cDovL3d3dy53My5vcmcvMTk5OS8wMi8yMi1yZGYtc3ludGF4LW5zIyIgeG1sbnM6c3ZnPSJodHRwOi8vd3d3LnczLm9yZy8yMDAwL3N2ZyIgeG1sbnM9Imh0dHA6Ly93d3cudzMub3JnLzIwMDAvc3ZnIiB4bWxuczpzb2RpcG9kaT0iaHR0cDovL3NvZGlwb2RpLnNvdXJjZWZvcmdlLm5ldC9EVEQvc29kaXBvZGktMC5kdGQiIHhtbG5zOmlua3NjYXBlPSJodHRwOi8vd3d3Lmlua3NjYXBlLm9yZy9uYW1lc3BhY2VzL2lua3NjYXBlIiB2aWV3Qm94PSIwIDAgNTAgNTAiIGNsYXNzPSJmeHMtcG9ydGFsLXN2ZyIgcm9sZT0icHJlc2VudGF0aW9uIiBmb2N1c2FibGU9ImZhbHNlIiBpZD0iRnhTeW1ib2wwLTA3MyIgdmVyc2lvbj0iMS4xIiBzb2RpcG9kaTpkb2NuYW1lPSJSb3V0ZSBGaWx0ZXJzLnN2ZyIgaW5rc2NhcGU6dmVyc2lvbj0iMC45Mi4zICgyNDA1NTQ2LCAyMDE4LTAzLTExKSI+JiN4YTsgIDxtZXRhZGF0YSBpZD0ibWV0YWRhdGEyNjE5Ij4mI3hhOyAgICA8cmRmOlJERj4mI3hhOyAgICAgIDxjYzpXb3JrIHJkZjphYm91dD0iIj4mI3hhOyAgICAgICAgPGRjOmZvcm1hdD5pbWFnZS9zdmcreG1sPC9kYzpmb3JtYXQ+JiN4YTsgICAgICAgIDxkYzp0eXBlIHJkZjpyZXNvdXJjZT0iaHR0cDovL3B1cmwub3JnL2RjL2RjbWl0eXBlL1N0aWxsSW1hZ2UiLz4mI3hhOyAgICAgICAgPGRjOnRpdGxlLz4mI3hhOyAgICAgIDwvY2M6V29yaz4mI3hhOyAgICA8L3JkZjpSREY+JiN4YTsgIDwvbWV0YWRhdGE+JiN4YTsgIDxkZWZzIGlkPSJkZWZzMjYxNyIvPiYjeGE7ICA8c29kaXBvZGk6bmFtZWR2aWV3IHBhZ2Vjb2xvcj0iI2ZmZmZmZiIgYm9yZGVyY29sb3I9IiM2NjY2NjYiIGJvcmRlcm9wYWNpdHk9IjEiIG9iamVjdHRvbGVyYW5jZT0iMTAiIGdyaWR0b2xlcmFuY2U9IjEwIiBndWlkZXRvbGVyYW5jZT0iMTAiIGlua3NjYXBlOnBhZ2VvcGFjaXR5PSIwIiBpbmtzY2FwZTpwYWdlc2hhZG93PSIyIiBpbmtzY2FwZTp3aW5kb3ctd2lkdGg9IjY0MCIgaW5rc2NhcGU6d2luZG93LWhlaWdodD0iNDgwIiBpZD0ibmFtZWR2aWV3MjYxNSIgc2hvd2dyaWQ9ImZhbHNlIiBpbmtzY2FwZTp6b29tPSI2LjI2IiBpbmtzY2FwZTpjeD0iMjUiIGlua3NjYXBlOmN5PSIyNSIgaW5rc2NhcGU6d2luZG93LXg9IjAiIGlua3NjYXBlOndpbmRvdy15PSIwIiBpbmtzY2FwZTp3aW5kb3ctbWF4aW1pemVkPSIxIiBpbmtzY2FwZTpjdXJyZW50LWxheWVyPSJGeFN5bWJvbDAtMDczIi8+JiN4YTsgIDxnIGlkPSJnMjYxMiI+JiN4YTsgICAgPHRpdGxlIGlkPSJ0aXRsZTI1OTYiLz4mI3hhOyAgICA8cGF0aCBkPSJNNDEuNjgxIDM2LjMxM0wzOS4xOTkgNDZsLTguNjA1LTUuMDk1eiIgY2xhc3M9Im1zcG9ydGFsZngtc3ZnLWMxNyIgZmlsbD0iIzgwNDk5OCIgaWQ9InBhdGgyNTk4Ii8+JiN4YTsgICAgPHBhdGggZD0iTTI0LjAyNSAyNS45OTZzLS40NzUuODYyLTEgMWM2LjU5NCAwIDEwLjkwMiAxMC45NSAxMy40NjkgMTcuMzRsMy4zMzEtLjk2MmMtMi42MjMtNi45MzktNS44LTE3LjM3OC0xNS44LTE3LjM3OHptMTcuNjU2LTEyLjMxN2wtMi40ODItOS42ODctOC42MDUgNS4wOTV6IiBjbGFzcz0ibXNwb3J0YWxmeC1zdmctYzE3IiBmaWxsPSIjODA0OTk4IiBpZD0icGF0aDI2MDAiLz4mI3hhOyAgICA8cGF0aCBkPSJNMjQuMDI1IDIzLjk5NnMtLjQ3NS0uODYyLTEtMWM2LjU5NCAwIDEwLjkwMi0xMC45NSAxMy40NjktMTcuMzRsMy4zMzEuOTYyYy0yLjYyMyA2LjkzOS01LjggMTcuMzc4LTE1LjggMTcuMzc4em0xOC4wMTgtNWw4IDYtOCA2eiIgY2xhc3M9Im1zcG9ydGFsZngtc3ZnLWMxNyIgZmlsbD0iIzgwNDk5OCIgaWQ9InBhdGgyNjAyIi8+JiN4YTsgICAgPHBhdGggZD0iTTQ1LjIwNCAyMi45OTZWMjdIMjF2LTQuMDA0eiIgY2xhc3M9Im1zcG9ydGFsZngtc3ZnLWMxNyIgZmlsbD0iIzgwNDk5OCIgaWQ9InBhdGgyNjA0Ii8+JiN4YTsgICAgPHBhdGggZD0iTTQuNzU0IDM4SDE5YTQuNzU0IDQuNzU0IDAgMCAwIDQuNzU0LTQuNzU0VjE2Ljc1QTQuNzU0IDQuNzU0IDAgMCAwIDE5IDExLjk5Nkg0Ljc1NEE0Ljc1MyA0Ljc1MyAwIDAgMCAwIDE2Ljc1djE2LjQ5N0E0Ljc1MyA0Ljc1MyAwIDAgMCA0Ljc1NCAzOHoiIGNsYXNzPSJtc3BvcnRhbGZ4LXN2Zy1jMTQiIGZpbGw9IiM3ZmJhMDAiIGlkPSJwYXRoMjYwNiIvPiYjeGE7ICAgIDxwYXRoIG9wYWNpdHk9Ii4yIiBkPSJNNC43NTQgMzhMMTkgMTEuOTk2SDQuNzU0QTQuNzUzIDQuNzUzIDAgMCAwIDAgMTYuNzV2MTYuNDk3QTQuNzUzIDQuNzUzIDAgMCAwIDQuNzU0IDM4eiIgY2xhc3M9Im1zcG9ydGFsZngtc3ZnLWMwMSIgZmlsbD0iI2ZmZmZmZiIgaWQ9InBhdGgyNjA4Ii8+JiN4YTsgICAgPHBhdGggZD0iTTE0IDIxLjk5Nmg2djZoLTZ6TTQgMTZoNnY2SDR6bTAgMTJoNnY2SDR6IiBjbGFzcz0ibXNwb3J0YWxmeC1zdmctYzAxIiBmaWxsPSIjZmZmZmZmIiBpZD0icGF0aDI2MTAiLz4mI3hhOyAgPC9nPiYjeGE7PC9zdmc+" vertex="1" parent="LuQpnFzkrzRRneaYS8KH-6">
          <mxGeometry x="58" y="190.88" width="50" height="50" as="geometry" />
        </mxCell>
        <mxCell id="vcM-8Kxd19stLzPDh3pf-6" value="" style="swimlane;startSize=0;shadow=0;dashed=1;dashPattern=1 4;labelBackgroundColor=none;strokeColor=#09090F;strokeWidth=2;fillColor=none;gradientColor=none;opacity=80;" vertex="1" parent="LuQpnFzkrzRRneaYS8KH-6">
          <mxGeometry x="143" y="162.64" width="70" height="60" as="geometry" />
        </mxCell>
        <mxCell id="vcM-8Kxd19stLzPDh3pf-7" value="" style="shape=image;verticalLabelPosition=bottom;labelBackgroundColor=#ffffff;verticalAlign=top;aspect=fixed;imageAspect=0;image=https://www.socallinuxexpo.org/sites/default/files/logos/Timescale_Logo_Tiger_Stack_FullColor_Web_600x350.png;" vertex="1" parent="vcM-8Kxd19stLzPDh3pf-6">
          <mxGeometry x="2.2799999999999723" y="11.000000000000009" width="65.43" height="38.88" as="geometry" />
        </mxCell>
        <mxCell id="vcM-8Kxd19stLzPDh3pf-8" value="" style="sketch=0;html=1;dashed=0;whitespace=wrap;fillColor=#2875E2;strokeColor=#ffffff;points=[[0.005,0.63,0],[0.1,0.2,0],[0.9,0.2,0],[0.5,0,0],[0.995,0.63,0],[0.72,0.99,0],[0.5,1,0],[0.28,0.99,0]];shape=mxgraph.kubernetes.icon;prIcon=pod;shadow=0;labelBackgroundColor=none;opacity=80;" vertex="1" parent="vcM-8Kxd19stLzPDh3pf-6">
          <mxGeometry x="-20" y="-17.64" width="40" height="35.88" as="geometry" />
        </mxCell>
        <mxCell id="vcM-8Kxd19stLzPDh3pf-33" style="edgeStyle=orthogonalEdgeStyle;rounded=0;orthogonalLoop=1;jettySize=auto;html=1;exitX=1;exitY=0.5;exitDx=0;exitDy=0;entryX=0;entryY=0.5;entryDx=0;entryDy=0;" edge="1" parent="LuQpnFzkrzRRneaYS8KH-6" source="vcM-8Kxd19stLzPDh3pf-5" target="vcM-8Kxd19stLzPDh3pf-6">
          <mxGeometry relative="1" as="geometry" />
        </mxCell>
        <mxCell id="vcM-8Kxd19stLzPDh3pf-9" value="" style="swimlane;startSize=0;shadow=0;dashed=1;dashPattern=1 4;labelBackgroundColor=none;strokeColor=#09090F;strokeWidth=2;fillColor=none;gradientColor=none;opacity=80;" vertex="1" parent="LuQpnFzkrzRRneaYS8KH-6">
          <mxGeometry x="143" y="76.63999999999999" width="70" height="60" as="geometry" />
        </mxCell>
        <mxCell id="vcM-8Kxd19stLzPDh3pf-10" value="" style="shape=image;verticalLabelPosition=bottom;labelBackgroundColor=#ffffff;verticalAlign=top;aspect=fixed;imageAspect=0;image=https://www.socallinuxexpo.org/sites/default/files/logos/Timescale_Logo_Tiger_Stack_FullColor_Web_600x350.png;" vertex="1" parent="vcM-8Kxd19stLzPDh3pf-9">
          <mxGeometry x="2.2799999999999723" y="10.000000000000009" width="65.43" height="38.88" as="geometry" />
        </mxCell>
        <mxCell id="vcM-8Kxd19stLzPDh3pf-11" value="" style="sketch=0;html=1;dashed=0;whitespace=wrap;fillColor=#2875E2;strokeColor=#ffffff;points=[[0.005,0.63,0],[0.1,0.2,0],[0.9,0.2,0],[0.5,0,0],[0.995,0.63,0],[0.72,0.99,0],[0.5,1,0],[0.28,0.99,0]];shape=mxgraph.kubernetes.icon;prIcon=pod;shadow=0;labelBackgroundColor=none;opacity=80;" vertex="1" parent="vcM-8Kxd19stLzPDh3pf-9">
          <mxGeometry x="-20" y="-18.64" width="40" height="35.88" as="geometry" />
        </mxCell>
        <mxCell id="vcM-8Kxd19stLzPDh3pf-32" style="edgeStyle=orthogonalEdgeStyle;rounded=0;orthogonalLoop=1;jettySize=auto;html=1;exitX=0.75;exitY=0;exitDx=0;exitDy=0;entryX=0;entryY=0.5;entryDx=0;entryDy=0;" edge="1" parent="LuQpnFzkrzRRneaYS8KH-6" source="vcM-8Kxd19stLzPDh3pf-5" target="vcM-8Kxd19stLzPDh3pf-9">
          <mxGeometry relative="1" as="geometry" />
        </mxCell>
        <mxCell id="vcM-8Kxd19stLzPDh3pf-12" value="" style="swimlane;startSize=0;shadow=0;dashed=1;dashPattern=1 4;labelBackgroundColor=none;strokeColor=#09090F;strokeWidth=2;fillColor=none;gradientColor=none;opacity=80;" vertex="1" parent="LuQpnFzkrzRRneaYS8KH-6">
          <mxGeometry x="143" y="303" width="70" height="60" as="geometry" />
        </mxCell>
        <mxCell id="vcM-8Kxd19stLzPDh3pf-13" value="" style="shape=image;verticalLabelPosition=bottom;labelBackgroundColor=#ffffff;verticalAlign=top;aspect=fixed;imageAspect=0;image=https://www.socallinuxexpo.org/sites/default/files/logos/Timescale_Logo_Tiger_Stack_FullColor_Web_600x350.png;" vertex="1" parent="vcM-8Kxd19stLzPDh3pf-12">
          <mxGeometry x="2.2799999999999723" y="11.000000000000009" width="65.43" height="38.88" as="geometry" />
        </mxCell>
        <mxCell id="vcM-8Kxd19stLzPDh3pf-14" value="" style="sketch=0;html=1;dashed=0;whitespace=wrap;fillColor=#2875E2;strokeColor=#ffffff;points=[[0.005,0.63,0],[0.1,0.2,0],[0.9,0.2,0],[0.5,0,0],[0.995,0.63,0],[0.72,0.99,0],[0.5,1,0],[0.28,0.99,0]];shape=mxgraph.kubernetes.icon;prIcon=pod;shadow=0;labelBackgroundColor=none;opacity=80;" vertex="1" parent="vcM-8Kxd19stLzPDh3pf-12">
          <mxGeometry x="-20" y="-17.64" width="40" height="35.88" as="geometry" />
        </mxCell>
        <mxCell id="vcM-8Kxd19stLzPDh3pf-34" style="edgeStyle=orthogonalEdgeStyle;rounded=0;orthogonalLoop=1;jettySize=auto;html=1;exitX=0.75;exitY=1;exitDx=0;exitDy=0;entryX=0;entryY=0.5;entryDx=0;entryDy=0;" edge="1" parent="LuQpnFzkrzRRneaYS8KH-6" source="vcM-8Kxd19stLzPDh3pf-5" target="vcM-8Kxd19stLzPDh3pf-13">
          <mxGeometry relative="1" as="geometry" />
        </mxCell>
        <mxCell id="vcM-8Kxd19stLzPDh3pf-15" value="Tenant 2" style="text;html=1;strokeColor=none;fillColor=none;align=center;verticalAlign=middle;whiteSpace=wrap;rounded=0;shadow=0;labelBackgroundColor=none;opacity=80;" vertex="1" parent="LuQpnFzkrzRRneaYS8KH-6">
          <mxGeometry x="183" y="223" width="60" height="30" as="geometry" />
        </mxCell>
        <mxCell id="vcM-8Kxd19stLzPDh3pf-16" value="Tenant 1" style="text;html=1;strokeColor=none;fillColor=none;align=center;verticalAlign=middle;whiteSpace=wrap;rounded=0;shadow=0;labelBackgroundColor=none;opacity=80;" vertex="1" parent="LuQpnFzkrzRRneaYS8KH-6">
          <mxGeometry x="183" y="132.64" width="60" height="30" as="geometry" />
        </mxCell>
        <mxCell id="vcM-8Kxd19stLzPDh3pf-17" value="" style="endArrow=none;dashed=1;html=1;dashPattern=1 3;strokeWidth=2;rounded=0;entryX=0.5;entryY=1;entryDx=0;entryDy=0;exitX=0.5;exitY=0;exitDx=0;exitDy=0;" edge="1" parent="LuQpnFzkrzRRneaYS8KH-6" source="vcM-8Kxd19stLzPDh3pf-12" target="vcM-8Kxd19stLzPDh3pf-6">
          <mxGeometry width="50" height="50" relative="1" as="geometry">
            <mxPoint x="263" y="288" as="sourcePoint" />
            <mxPoint x="313" y="238" as="targetPoint" />
          </mxGeometry>
        </mxCell>
        <mxCell id="vcM-8Kxd19stLzPDh3pf-18" value="Tenant N" style="text;html=1;strokeColor=none;fillColor=none;align=center;verticalAlign=middle;whiteSpace=wrap;rounded=0;shadow=0;labelBackgroundColor=none;opacity=80;" vertex="1" parent="LuQpnFzkrzRRneaYS8KH-6">
          <mxGeometry x="183" y="363" width="60" height="30" as="geometry" />
        </mxCell>
        <mxCell id="vcM-8Kxd19stLzPDh3pf-35" value="Ingress Controller" style="text;html=1;strokeColor=none;fillColor=none;align=center;verticalAlign=middle;whiteSpace=wrap;rounded=0;shadow=0;labelBackgroundColor=none;opacity=80;" vertex="1" parent="LuQpnFzkrzRRneaYS8KH-6">
          <mxGeometry x="38" y="230" width="60" height="30" as="geometry" />
        </mxCell>
        <mxCell id="LuQpnFzkrzRRneaYS8KH-4" value="" style="aspect=fixed;html=1;points=[];align=center;image;fontSize=12;image=img/lib/azure2/compute/Kubernetes_Services.svg;shadow=0;dashed=1;labelBackgroundColor=none;strokeColor=#09090F;strokeWidth=1;fillColor=none;gradientColor=none;opacity=80;" vertex="1" parent="LuQpnFzkrzRRneaYS8KH-6">
          <mxGeometry y="4" width="68" height="60" as="geometry" />
        </mxCell>
        <mxCell id="LuQpnFzkrzRRneaYS8KH-5" value="&lt;b&gt;AKS Cluster&lt;/b&gt;" style="text;html=1;strokeColor=none;fillColor=none;align=center;verticalAlign=middle;whiteSpace=wrap;rounded=0;shadow=0;labelBackgroundColor=none;opacity=80;" vertex="1" parent="LuQpnFzkrzRRneaYS8KH-6">
          <mxGeometry x="58" width="100" height="30" as="geometry" />
        </mxCell>
        <mxCell id="LuQpnFzkrzRRneaYS8KH-11" value="Route Table" style="text;html=1;strokeColor=none;fillColor=none;align=center;verticalAlign=middle;whiteSpace=wrap;rounded=0;shadow=0;labelBackgroundColor=none;opacity=80;" vertex="1" parent="vcM-8Kxd19stLzPDh3pf-1">
          <mxGeometry x="1090" y="120" width="90" height="30" as="geometry" />
        </mxCell>
        <mxCell id="LuQpnFzkrzRRneaYS8KH-12" value="Network Security Group" style="text;html=1;strokeColor=none;fillColor=none;align=center;verticalAlign=middle;whiteSpace=wrap;rounded=0;shadow=0;labelBackgroundColor=none;opacity=80;" vertex="1" parent="vcM-8Kxd19stLzPDh3pf-1">
          <mxGeometry x="1098.75" y="170" width="133.96" height="30" as="geometry" />
        </mxCell>
        <mxCell id="LuQpnFzkrzRRneaYS8KH-13" value="AKS API Loadbalancer" style="text;html=1;strokeColor=none;fillColor=none;align=center;verticalAlign=middle;whiteSpace=wrap;rounded=0;shadow=0;labelBackgroundColor=none;opacity=80;" vertex="1" parent="vcM-8Kxd19stLzPDh3pf-1">
          <mxGeometry x="1050" y="480" width="95" height="30" as="geometry" />
        </mxCell>
        <mxCell id="LuQpnFzkrzRRneaYS8KH-14" value="Azure Hosted Zone" style="text;html=1;strokeColor=none;fillColor=none;align=center;verticalAlign=middle;whiteSpace=wrap;rounded=0;shadow=0;labelBackgroundColor=none;opacity=80;" vertex="1" parent="vcM-8Kxd19stLzPDh3pf-1">
          <mxGeometry x="913.03" y="820" width="163.93" height="30" as="geometry" />
        </mxCell>
        <mxCell id="LuQpnFzkrzRRneaYS8KH-17" value="&amp;nbsp;AKS API endpoint" style="text;html=1;strokeColor=none;fillColor=none;align=center;verticalAlign=middle;whiteSpace=wrap;rounded=0;shadow=0;labelBackgroundColor=none;opacity=80;" vertex="1" parent="vcM-8Kxd19stLzPDh3pf-1">
          <mxGeometry x="910" y="480" width="70" height="40" as="geometry" />
        </mxCell>
        <mxCell id="LuQpnFzkrzRRneaYS8KH-19" value="Azure ACR" style="text;html=1;strokeColor=none;fillColor=none;align=center;verticalAlign=middle;whiteSpace=wrap;rounded=0;shadow=0;labelBackgroundColor=none;opacity=80;" vertex="1" parent="vcM-8Kxd19stLzPDh3pf-1">
          <mxGeometry x="1506.76" y="818" width="100" height="22" as="geometry" />
        </mxCell>
        <mxCell id="LuQpnFzkrzRRneaYS8KH-22" style="edgeStyle=orthogonalEdgeStyle;rounded=0;orthogonalLoop=1;jettySize=auto;html=1;entryX=0.5;entryY=1;entryDx=0;entryDy=0;strokeColor=#99CCFF;" edge="1" parent="vcM-8Kxd19stLzPDh3pf-1" source="LuQpnFzkrzRRneaYS8KH-20" target="vcM-8Kxd19stLzPDh3pf-2">
          <mxGeometry relative="1" as="geometry">
            <Array as="points">
              <mxPoint x="1534" y="520" />
              <mxPoint x="1413" y="520" />
            </Array>
          </mxGeometry>
        </mxCell>
        <mxCell id="LuQpnFzkrzRRneaYS8KH-20" value="" style="aspect=fixed;html=1;points=[];align=center;image;fontSize=12;image=img/lib/azure2/containers/Container_Registries.svg;shadow=0;dashed=1;labelBackgroundColor=none;strokeColor=#09090F;strokeWidth=1;fillColor=none;gradientColor=none;opacity=80;" vertex="1" parent="vcM-8Kxd19stLzPDh3pf-1">
          <mxGeometry x="1513.51" y="768" width="53.51" height="48" as="geometry" />
        </mxCell>
        <mxCell id="LuQpnFzkrzRRneaYS8KH-21" style="edgeStyle=orthogonalEdgeStyle;rounded=0;orthogonalLoop=1;jettySize=auto;html=1;strokeColor=#99CCFF;" edge="1" parent="vcM-8Kxd19stLzPDh3pf-1" target="vcM-8Kxd19stLzPDh3pf-37">
          <mxGeometry relative="1" as="geometry">
            <mxPoint x="1413" y="501" as="sourcePoint" />
            <mxPoint x="1290" y="541" as="targetPoint" />
            <Array as="points">
              <mxPoint x="1413" y="520" />
              <mxPoint x="1290" y="520" />
            </Array>
          </mxGeometry>
        </mxCell>
        <mxCell id="_TohCL1j5Xz9JUrsvs4M-16" style="edgeStyle=orthogonalEdgeStyle;rounded=0;orthogonalLoop=1;jettySize=auto;html=1;strokeColor=#B3B3B3;strokeWidth=1;" edge="1" parent="vcM-8Kxd19stLzPDh3pf-1" source="_TohCL1j5Xz9JUrsvs4M-4">
          <mxGeometry relative="1" as="geometry">
            <mxPoint x="960" y="306" as="targetPoint" />
          </mxGeometry>
        </mxCell>
        <mxCell id="_TohCL1j5Xz9JUrsvs4M-4" value="" style="aspect=fixed;html=1;points=[];align=center;image;fontSize=12;image=img/lib/azure2/compute/Service_Fabric_Clusters.svg;shadow=0;labelBackgroundColor=none;strokeColor=#09090F;strokeWidth=1;fillColor=none;gradientColor=none;opacity=80;" vertex="1" parent="vcM-8Kxd19stLzPDh3pf-1">
          <mxGeometry x="860" y="279.88" width="54.44" height="52" as="geometry" />
        </mxCell>
        <mxCell id="_TohCL1j5Xz9JUrsvs4M-5" value="Service Fabric" style="text;html=1;strokeColor=none;fillColor=none;align=center;verticalAlign=middle;whiteSpace=wrap;rounded=0;shadow=0;labelBackgroundColor=none;opacity=80;" vertex="1" parent="vcM-8Kxd19stLzPDh3pf-1">
          <mxGeometry x="840" y="330.88" width="90" height="30" as="geometry" />
        </mxCell>
        <mxCell id="_TohCL1j5Xz9JUrsvs4M-6" value="" style="aspect=fixed;html=1;points=[];align=center;image;fontSize=12;image=img/lib/azure2/general/Resource_Groups.svg;shadow=0;labelBackgroundColor=none;strokeColor=#09090F;strokeWidth=1;fillColor=none;gradientColor=none;opacity=80;" vertex="1" parent="vcM-8Kxd19stLzPDh3pf-1">
          <mxGeometry x="730" y="-64" width="68" height="64" as="geometry" />
        </mxCell>
        <mxCell id="_TohCL1j5Xz9JUrsvs4M-11" value="" style="verticalLabelPosition=bottom;html=1;verticalAlign=top;align=center;strokeColor=none;fillColor=#00BEF2;shape=mxgraph.azure.azure_subscription;shadow=0;dashed=1;labelBackgroundColor=none;opacity=80;" vertex="1" parent="vcM-8Kxd19stLzPDh3pf-1">
          <mxGeometry x="570" y="-180" width="100" height="90" as="geometry" />
        </mxCell>
        <mxCell id="_TohCL1j5Xz9JUrsvs4M-14" style="edgeStyle=orthogonalEdgeStyle;rounded=0;orthogonalLoop=1;jettySize=auto;html=1;exitX=0.5;exitY=1;exitDx=0;exitDy=0;exitPerimeter=0;entryX=0;entryY=0.56;entryDx=0;entryDy=0;entryPerimeter=0;strokeColor=#99CCFF;strokeWidth=1;" edge="1" parent="vcM-8Kxd19stLzPDh3pf-1" source="_TohCL1j5Xz9JUrsvs4M-12" target="hrhgzxRZjDSLze23WV2W-1">
          <mxGeometry relative="1" as="geometry">
            <mxPoint x="971.8330000000001" y="796.1860000000001" as="targetPoint" />
          </mxGeometry>
        </mxCell>
        <mxCell id="_TohCL1j5Xz9JUrsvs4M-12" value="" style="sketch=0;html=1;dashed=0;whitespace=wrap;fillColor=#2875E2;strokeColor=#ffffff;points=[[0.005,0.63,0],[0.1,0.2,0],[0.9,0.2,0],[0.5,0,0],[0.995,0.63,0],[0.72,0.99,0],[0.5,1,0],[0.28,0.99,0]];shape=mxgraph.kubernetes.icon;prIcon=api;shadow=0;labelBackgroundColor=none;opacity=80;" vertex="1" parent="vcM-8Kxd19stLzPDh3pf-1">
          <mxGeometry x="880" y="440" width="50" height="48" as="geometry" />
        </mxCell>
        <mxCell id="_TohCL1j5Xz9JUrsvs4M-18" value="&lt;b&gt;&lt;font style=&quot;font-size: 14px&quot;&gt;Virtual Network&lt;/font&gt;&lt;/b&gt;" style="text;html=1;strokeColor=none;fillColor=none;align=center;verticalAlign=middle;whiteSpace=wrap;rounded=0;shadow=0;labelBackgroundColor=none;opacity=80;" vertex="1" parent="vcM-8Kxd19stLzPDh3pf-1">
          <mxGeometry x="880" y="30" width="110" height="30" as="geometry" />
        </mxCell>
        <mxCell id="_TohCL1j5Xz9JUrsvs4M-19" value="&lt;b&gt;&lt;font style=&quot;font-size: 14px&quot;&gt;Resource Group&lt;/font&gt;&lt;/b&gt;" style="text;html=1;strokeColor=none;fillColor=none;align=center;verticalAlign=middle;whiteSpace=wrap;rounded=0;shadow=0;labelBackgroundColor=none;opacity=80;" vertex="1" parent="vcM-8Kxd19stLzPDh3pf-1">
          <mxGeometry x="798" y="-70" width="112" height="30" as="geometry" />
        </mxCell>
        <mxCell id="_TohCL1j5Xz9JUrsvs4M-20" value="&lt;b&gt;Azure Region&lt;/b&gt;" style="text;html=1;strokeColor=none;fillColor=none;align=center;verticalAlign=middle;whiteSpace=wrap;rounded=0;shadow=0;labelBackgroundColor=none;opacity=80;" vertex="1" parent="vcM-8Kxd19stLzPDh3pf-1">
          <mxGeometry x="660" y="-160" width="112" height="30" as="geometry" />
        </mxCell>
        <mxCell id="hrhgzxRZjDSLze23WV2W-1" value="" style="sketch=0;aspect=fixed;html=1;points=[];align=center;image;fontSize=12;image=img/lib/mscae/DNS_Private_Zones.svg;shadow=0;dashed=1;labelBackgroundColor=none;strokeColor=#09090F;strokeWidth=2;fillColor=none;gradientColor=none;opacity=60;" vertex="1" parent="vcM-8Kxd19stLzPDh3pf-1">
          <mxGeometry x="970" y="768" width="50" height="50" as="geometry" />
        </mxCell>
        <mxCell id="hrhgzxRZjDSLze23WV2W-3" style="edgeStyle=orthogonalEdgeStyle;rounded=0;orthogonalLoop=1;jettySize=auto;html=1;entryX=0;entryY=0.5;entryDx=0;entryDy=0;fontSize=14;strokeColor=#B3B3B3;strokeWidth=1;" edge="1" parent="vcM-8Kxd19stLzPDh3pf-1" source="hrhgzxRZjDSLze23WV2W-2" target="vcM-8Kxd19stLzPDh3pf-4">
          <mxGeometry relative="1" as="geometry" />
        </mxCell>
        <mxCell id="hrhgzxRZjDSLze23WV2W-2" value="" style="sketch=0;aspect=fixed;html=1;points=[];align=center;image;fontSize=12;image=img/lib/mscae/DNS_Private_Zones.svg;shadow=0;dashed=1;labelBackgroundColor=none;strokeColor=#09090F;strokeWidth=2;fillColor=none;gradientColor=none;opacity=60;" vertex="1" parent="vcM-8Kxd19stLzPDh3pf-1">
          <mxGeometry x="969.99" y="281" width="50" height="50" as="geometry" />
        </mxCell>
        <mxCell id="hrhgzxRZjDSLze23WV2W-4" value="Private DNS" style="text;html=1;strokeColor=none;fillColor=none;align=center;verticalAlign=middle;whiteSpace=wrap;rounded=0;shadow=0;labelBackgroundColor=none;opacity=80;" vertex="1" parent="vcM-8Kxd19stLzPDh3pf-1">
          <mxGeometry x="950" y="325" width="90" height="30" as="geometry" />
        </mxCell>
        <mxCell id="hrhgzxRZjDSLze23WV2W-5" value="" style="shape=image;verticalLabelPosition=bottom;verticalAlign=top;imageAspect=0;aspect=fixed;image=data:image/svg+xml,PHN2ZyB4bWxuczpkYz0iaHR0cDovL3B1cmwub3JnL2RjL2VsZW1lbnRzLzEuMS8iIHhtbG5zOmNjPSJodHRwOi8vY3JlYXRpdmVjb21tb25zLm9yZy9ucyMiIHhtbG5zOnJkZj0iaHR0cDovL3d3dy53My5vcmcvMTk5OS8wMi8yMi1yZGYtc3ludGF4LW5zIyIgeG1sbnM6c3ZnPSJodHRwOi8vd3d3LnczLm9yZy8yMDAwL3N2ZyIgeG1sbnM9Imh0dHA6Ly93d3cudzMub3JnLzIwMDAvc3ZnIiB4bWxuczpzb2RpcG9kaT0iaHR0cDovL3NvZGlwb2RpLnNvdXJjZWZvcmdlLm5ldC9EVEQvc29kaXBvZGktMC5kdGQiIHhtbG5zOmlua3NjYXBlPSJodHRwOi8vd3d3Lmlua3NjYXBlLm9yZy9uYW1lc3BhY2VzL2lua3NjYXBlIiB2ZXJzaW9uPSIxLjEiIGlkPSJMYXllcl8xIiB4PSIwcHgiIHk9IjBweCIgd2lkdGg9IjUwcHgiIGhlaWdodD0iNTBweCIgdmlld0JveD0iMCAwIDUwIDUwIiBlbmFibGUtYmFja2dyb3VuZD0ibmV3IDAgMCA1MCA1MCIgeG1sOnNwYWNlPSJwcmVzZXJ2ZSIgc29kaXBvZGk6ZG9jbmFtZT0iTG9hZCBCYWxhbmNlcnMuc3ZnIiBpbmtzY2FwZTp2ZXJzaW9uPSIwLjkyLjMgKDI0MDU1NDYsIDIwMTgtMDMtMTEpIj48bWV0YWRhdGEgaWQ9Im1ldGFkYXRhMTQxOSI+PHJkZjpSREY+PGNjOldvcmsgcmRmOmFib3V0PSIiPjxkYzpmb3JtYXQ+aW1hZ2Uvc3ZnK3htbDwvZGM6Zm9ybWF0PjxkYzp0eXBlIHJkZjpyZXNvdXJjZT0iaHR0cDovL3B1cmwub3JnL2RjL2RjbWl0eXBlL1N0aWxsSW1hZ2UiLz48ZGM6dGl0bGUvPjwvY2M6V29yaz48L3JkZjpSREY+PC9tZXRhZGF0YT48ZGVmcyBpZD0iZGVmczE0MTciLz48c29kaXBvZGk6bmFtZWR2aWV3IHBhZ2Vjb2xvcj0iI2ZmZmZmZiIgYm9yZGVyY29sb3I9IiM2NjY2NjYiIGJvcmRlcm9wYWNpdHk9IjEiIG9iamVjdHRvbGVyYW5jZT0iMTAiIGdyaWR0b2xlcmFuY2U9IjEwIiBndWlkZXRvbGVyYW5jZT0iMTAiIGlua3NjYXBlOnBhZ2VvcGFjaXR5PSIwIiBpbmtzY2FwZTpwYWdlc2hhZG93PSIyIiBpbmtzY2FwZTp3aW5kb3ctd2lkdGg9IjcxNiIgaW5rc2NhcGU6d2luZG93LWhlaWdodD0iNDgwIiBpZD0ibmFtZWR2aWV3MTQxNSIgc2hvd2dyaWQ9ImZhbHNlIiBpbmtzY2FwZTp6b29tPSI0LjcyIiBpbmtzY2FwZTpjeD0iMjUiIGlua3NjYXBlOmN5PSIyNSIgaW5rc2NhcGU6d2luZG93LXg9IjAiIGlua3NjYXBlOndpbmRvdy15PSIwIiBpbmtzY2FwZTp3aW5kb3ctbWF4aW1pemVkPSIwIiBpbmtzY2FwZTpjdXJyZW50LWxheWVyPSJMYXllcl8xIi8+JiN4YTs8cGF0aCBmaWxsPSIjN0ZCQTAwIiBkPSJNMjUuMDAxLDUwYy0xLjIzMiwwLTIuMzkyLTAuNDgtMy4yNjEtMS4zNTJMMS4zNTEsMjguMjZDMC40OTIsMjcuNDAxLDAsMjYuMjE0LDAsMjQuOTk5ICBjMC0xLjIxNCwwLjQ5Mi0yLjQwMiwxLjM1MS0zLjI2TDIxLjc0LDEuMzUxYzAuODcxLTAuODcyLDIuMDI5LTEuMzUyLDMuMjYxLTEuMzUyYzEuMjMxLDAsMi4zOSwwLjQ4LDMuMjYxLDEuMzUybDIwLjM4NiwyMC4zODggIEM0OS41MjEsMjIuNjA3LDUwLDIzLjc2Niw1MCwyNC45OTljMCwxLjIzMy0wLjQ3OSwyLjM5Mi0xLjM1MywzLjI2M0wyOC4yNjIsNDguNjQ4QzI3LjM5Miw0OS41MiwyNi4yMzIsNTAsMjUuMDAxLDUwIiBpZD0icGF0aDE0MDYiLz4mI3hhOzxwYXRoIGZpbGw9IiNGRkZGRkYiIGQ9Ik00NS42MTMsMjQuNjZMMzksMTguMDQ4djQuNjY4bC03LjAxNi0wLjAwNmMtMC42NzctMi40MTgtMi41NzMtNC4zMjgtNC45ODQtNS4wMlYxMWg0LjYxM0wyNSw0LjM4NyAgTDE4LjM4OCwxMUgyM3Y2LjY4OWMtMi40MDcsMC42OTItNC4zMDEsMi41OTYtNC45ODEsNS4wMDhMMTEsMjIuNjkxdi00LjYxOGwtNi42MTMsNi42MTNMMTEsMzEuMjk4VjI2LjYzbDcuMDIyLDAuMDA2ICBjMC42ODMsMi40MDcsMi41NzQsNC4zMDUsNC45NzgsNC45OTZ2NC42MzZjLTEsMC43MjgtMi41MjgsMi4yNTgtMi41MjgsNC4wNGMwLDIuNDgxLDIuMDMzLDQuNSw0LjUxNCw0LjVzNC41MS0yLjAxOSw0LjUxLTQuNSAgYzAtMS43NjItMS40OTYtMy4yNzQtMi40OTYtNC4wMTN2LTQuNjYzYzIuMzk5LTAuNjg5LDQuMjg5LTIuNTgzLDQuOTc1LTQuOTgzTDM5LDI2LjY1NXY0LjYxOEw0NS42MTMsMjQuNjZ6IiBpZD0icGF0aDE0MDgiLz4mI3hhOzxwYXRoIGZpbGw9IiM1OUI0RDkiIGQ9Ik0yNSwxOS40MDJjLTIuODk5LDAtNS4yNTgsMi4zNTktNS4yNTgsNS4yNThzMi4zNTksNS4yNTgsNS4yNTgsNS4yNThzNS4yNTgtMi4zNTgsNS4yNTgtNS4yNTggIFMyNy44OTksMTkuNDAyLDI1LDE5LjQwMnoiIGlkPSJwYXRoMTQxMCIvPiYjeGE7PHBhdGggb3BhY2l0eT0iMC4xNSIgZmlsbD0iI0ZGRkZGRiIgZD0iTTI4LjI2MiwxLjM1MWMtMC44NzEtMC44NzItMi4wMjktMS4zNTItMy4yNjEtMS4zNTJjLTEuMjMxLDAtMi4zODksMC40OC0zLjI2LDEuMzUyICBMMS4zNTIsMjEuNzM5QzAuNDkyLDIyLjU5NywwLDIzLjc4NSwwLDI0Ljk5OWMwLDEuMjE1LDAuNDkyLDIuNDAzLDEuMzUyLDMuMjYxbDExLjU0MywxMS41NDRMMzQuNjEsNy42OThMMjguMjYyLDEuMzUxeiIgaWQ9InBhdGgxNDEyIi8+JiN4YTs8L3N2Zz4=" vertex="1" parent="vcM-8Kxd19stLzPDh3pf-1">
          <mxGeometry x="1072.5" y="430" width="50" height="50" as="geometry" />
        </mxCell>
      </root>
    </mxGraphModel>
  </diagram>
</mxfile>
